<svg width="265" height="52" viewBox="0 0 265 52" fill="none" xmlns="http://www.w3.org/2000/svg">
<path d="M265 22.9478C265 23.7601 264.949 24.6062 264.848 25.4862H245.2C245.335 27.2462 245.894 28.6 246.875 29.5477C247.891 30.4616 249.126 30.9185 250.582 30.9185C252.748 30.9185 254.254 30.0046 255.1 28.177H264.34C263.866 30.0385 263.003 31.7139 261.751 33.2031C260.532 34.6923 258.992 35.86 257.131 36.7061C255.269 37.5523 253.188 37.9754 250.886 37.9754C248.111 37.9754 245.64 37.3831 243.474 36.1984C241.308 35.0138 239.615 33.3215 238.397 31.1216C237.179 28.9216 236.569 26.3493 236.569 23.4047C236.569 20.4601 237.162 17.8878 238.346 15.6878C239.565 13.4878 241.257 11.7955 243.423 10.6109C245.589 9.42629 248.077 8.83398 250.886 8.83398C253.628 8.83398 256.065 9.40937 258.197 10.5601C260.329 11.7109 261.988 13.3524 263.172 15.4847C264.391 17.617 265 20.1047 265 22.9478ZM256.115 20.6631C256.115 19.1739 255.608 17.9893 254.592 17.1093C253.577 16.2293 252.308 15.7893 250.785 15.7893C249.329 15.7893 248.094 16.2124 247.079 17.0586C246.097 17.9047 245.488 19.1062 245.251 20.6631H256.115Z" fill="black"/>
<path d="M223.006 13.9617C224.022 12.4048 225.291 11.1863 226.814 10.3063C228.337 9.39247 230.029 8.93555 231.891 8.93555V18.1247H229.505C227.338 18.1247 225.714 18.5986 224.631 19.5463C223.548 20.4601 223.006 22.0847 223.006 24.4201V37.5692H214.325V9.24016H223.006V13.9617Z" fill="black"/>
<path d="M179.649 23.3539C179.649 20.4431 180.191 17.8878 181.274 15.6878C182.391 13.4878 183.897 11.7955 185.792 10.6109C187.688 9.42629 189.803 8.83398 192.139 8.83398C194.135 8.83398 195.879 9.24014 197.368 10.0524C198.891 10.8647 200.059 11.9309 200.871 13.2509V9.24014H209.552V37.5692H200.871V33.5585C200.025 34.8784 198.84 35.9446 197.317 36.7569C195.828 37.5692 194.085 37.9754 192.088 37.9754C189.786 37.9754 187.688 37.3831 185.792 36.1984C183.897 34.98 182.391 33.2708 181.274 31.0708C180.191 28.8369 179.649 26.2647 179.649 23.3539ZM200.871 23.4047C200.871 21.2385 200.262 19.5293 199.043 18.277C197.859 17.0247 196.403 16.3986 194.677 16.3986C192.951 16.3986 191.479 17.0247 190.26 18.277C189.076 19.4955 188.483 21.1878 188.483 23.3539C188.483 25.52 189.076 27.2462 190.26 28.5323C191.479 29.7846 192.951 30.4108 194.677 30.4108C196.403 30.4108 197.859 29.7846 199.043 28.5323C200.262 27.28 200.871 25.5708 200.871 23.4047Z" fill="black"/>
<path d="M140.067 19.6982C140.067 16.1783 140.829 13.0475 142.352 10.306C143.875 7.53061 145.99 5.38139 148.698 3.85832C151.439 2.30141 154.536 1.52295 157.989 1.52295C162.219 1.52295 165.841 2.63987 168.853 4.8737C171.865 7.10753 173.879 10.1537 174.895 14.0121H165.35C164.639 12.5229 163.624 11.389 162.304 10.6106C161.018 9.83213 159.545 9.4429 157.887 9.4429C155.213 9.4429 153.047 10.3737 151.389 12.2352C149.73 14.0967 148.901 16.5844 148.901 19.6982C148.901 22.8121 149.73 25.2997 151.389 27.1613C153.047 29.0228 155.213 29.9536 157.887 29.9536C159.545 29.9536 161.018 29.5643 162.304 28.7859C163.624 28.0074 164.639 26.8736 165.35 25.3844H174.895C173.879 29.2428 171.865 32.2889 168.853 34.5228C165.841 36.7227 162.219 37.8227 157.989 37.8227C154.536 37.8227 151.439 37.0612 148.698 35.5381C145.99 33.9812 143.875 31.832 142.352 29.0905C140.829 26.349 140.067 23.2182 140.067 19.6982Z" fill="black"/>
<path d="M135.337 0V37.569H126.655V0H135.337Z" fill="black"/>
<path d="M91.9797 23.3539C91.9797 20.4431 92.5213 17.8878 93.6043 15.6878C94.7213 13.4878 96.2274 11.7955 98.1228 10.6109C100.018 9.42629 102.134 8.83398 104.469 8.83398C106.466 8.83398 108.209 9.24014 109.698 10.0524C111.221 10.8647 112.389 11.9309 113.201 13.2509V9.24014H121.883V37.5692H113.201V33.5585C112.355 34.8784 111.17 35.9446 109.647 36.7569C108.158 37.5692 106.415 37.9754 104.418 37.9754C102.117 37.9754 100.018 37.3831 98.1228 36.1984C96.2274 34.98 94.7213 33.2708 93.6043 31.0708C92.5213 28.8369 91.9797 26.2647 91.9797 23.3539ZM113.201 23.4047C113.201 21.2385 112.592 19.5293 111.373 18.277C110.189 17.0247 108.733 16.3986 107.007 16.3986C105.281 16.3986 103.809 17.0247 102.59 18.277C101.406 19.4955 100.814 21.1878 100.814 23.3539C100.814 25.52 101.406 27.2462 102.59 28.5323C103.809 29.7846 105.281 30.4108 107.007 30.4108C108.733 30.4108 110.189 29.7846 111.373 28.5323C112.592 27.28 113.201 25.5708 113.201 23.4047Z" fill="black"/>
<path d="M57.4109 23.3939C57.4109 20.5847 57.9863 18.0801 59.137 15.8801C60.3216 13.6802 61.8955 11.9709 63.8585 10.7525C65.8555 9.50017 68.0216 8.87402 70.357 8.87402C72.1508 8.87402 73.7585 9.19556 75.18 9.83863C76.6016 10.4479 77.7523 11.3109 78.6323 12.4278V9.17864H87.3138V51.0122H78.6323V33.9539C77.6508 35.1385 76.4492 36.0862 75.0277 36.7969C73.64 37.5077 72.0493 37.8631 70.2554 37.8631C67.9539 37.8631 65.8216 37.2539 63.8585 36.0354C61.8955 34.817 60.3216 33.1077 59.137 30.9077C57.9863 28.7078 57.4109 26.2032 57.4109 23.3939ZM78.6323 23.3432C78.6323 21.8201 78.3277 20.5509 77.7185 19.5355C77.1431 18.4863 76.3816 17.7078 75.4339 17.2001C74.4862 16.6586 73.4877 16.3878 72.4385 16.3878C71.4231 16.3878 70.4416 16.6586 69.4939 17.2001C68.5462 17.7078 67.7678 18.4863 67.1585 19.5355C66.5493 20.5847 66.2447 21.8709 66.2447 23.3939C66.2447 24.917 66.5493 26.2032 67.1585 27.2524C67.7678 28.2678 68.5462 29.0462 69.4939 29.5877C70.4416 30.0954 71.4231 30.3493 72.4385 30.3493C73.4539 30.3493 74.4354 30.0954 75.3831 29.5877C76.3646 29.0462 77.1431 28.2508 77.7185 27.2016C78.3277 26.1524 78.6323 24.8662 78.6323 23.3432Z" fill="black"/>
<path d="M8.68149 30.8675H20.0537V37.569H0V1.9292H8.68149V30.8675Z" fill="black"/>
<path d="M38.149 8.87402C29.5465 8.87402 22.5728 15.8477 22.5728 24.4503C22.5728 26.7532 23.3154 28.8368 24.2124 30.8037C27.0513 36.7063 34.6054 46.1409 38.149 50.0691C44.4615 43.9206 50.2322 34.732 52.3285 30.9062C53.2255 28.9393 53.9302 26.7532 53.9302 24.4503C53.9302 15.8477 46.7515 8.87402 38.149 8.87402Z" fill="#547DCB"/>
<path d="M29.1311 19.8388V21.9908C29.5752 22.025 30.8937 22.0728 32.6153 21.9908C34.3368 21.9088 35.3138 20.4537 35.587 19.7364H36.6118V16.6621H32.6153C30.3198 16.6621 29.1311 18.7799 29.1311 19.8388Z" fill="white"/>
<path d="M41.1207 19.7364V16.6621H42.9653C44.3999 16.6621 47.2692 17.5024 47.2692 20.8636C47.2692 24.2248 44.3999 24.9968 42.9653 24.9626H39.6861V31.726H41.2232C41.4623 31.726 41.9405 31.521 41.9405 30.7012C41.9405 29.8814 41.4623 29.6082 41.2232 29.574V28.0369C41.9747 28.071 43.4776 28.6517 43.4776 30.7012C43.4776 32.7507 41.9064 33.2631 41.1207 33.2631H39.6861V35.0052C39.7202 35.2101 39.6246 35.62 38.9687 35.62C38.3129 35.62 38.1489 35.2101 38.1489 35.0052V33.2631H35.6895C35.4846 33.2631 35.0747 33.0582 35.0747 32.6483C35.0747 31.9924 35.4846 31.8285 35.6895 31.8285H38.1489V24.9626H36.6118C36.0994 24.9626 35.0747 25.27 35.0747 26.4997C35.0747 27.7294 35.9628 28.0369 36.4069 28.0369H36.6118V29.574H36.4069C35.2113 29.5398 32.8202 28.7952 32.8202 26.0898C32.8202 23.3845 34.8014 22.7082 35.792 22.7082H38.1489V14.92C38.1148 14.7151 38.2104 14.3052 38.8663 14.3052C39.5221 14.3052 39.6861 14.7151 39.6861 14.92V22.7082H42.9653C43.3752 22.7423 44.195 22.5032 44.195 21.2735C44.195 20.0438 43.3752 19.7364 42.9653 19.7364H41.1207Z" fill="white"/>
</svg>
