<svg width="630" height="421" viewBox="0 0 630 421" fill="none" xmlns="http://www.w3.org/2000/svg">
<g clip-path="url(#clip0_120_6970)">
<path d="M34.6739 425.717C86.7077 351.638 52.9211 285.96 36.2418 198.115C-4.63073 58.2061 154.513 -54.7302 313.667 54.5769C412.398 122.386 504.58 53.751 578.631 125.002C637.522 181.667 578.877 301.237 577.605 355.122C576.602 397.597 611.029 425.716 611.029 425.716L34.6739 425.717Z" fill="#F2F2F2" fill-opacity="0.58"/>
<path d="M542.161 406.371C557.078 406.371 569.17 393.53 569.17 377.688V338.586H515.152V377.688C515.152 393.53 527.244 406.371 542.161 406.371Z" fill="#C2C2C2"/>
<path d="M569.17 428.829H572.164V368.137H569.17V428.829Z" fill="black"/>
<path d="M512.159 428.829H515.152V368.137H512.159V428.829Z" fill="black"/>
<path d="M535.067 428.829H538.061V368.137H535.067V428.829Z" fill="black"/>
<path d="M572.164 409.55V406.371H515.013V409.55H572.164Z" fill="black"/>
<path d="M533.175 264.722C538.222 267.574 534.235 274.582 536.301 281.225C538.368 287.867 546.672 287.707 543.535 299.593C541.604 306.915 534.761 302.325 534.918 311.844C535.074 321.362 538.468 321.129 535.834 326.022C531.243 334.553 515.592 329.781 515.468 320.255C515.345 310.73 522.853 307.49 516.509 303.059C510.166 298.629 507.628 296.614 511.804 290.279C516.971 282.438 524.984 282.675 522.742 276.554C520.501 270.434 526.501 260.95 533.175 264.722Z" fill="#E9E9E9"/>
<path d="M530.509 338.37L529.194 338.771C520.263 305.718 528.625 274.594 528.711 274.284L530.023 274.692C529.939 274.998 521.691 305.735 530.509 338.37Z" fill="black"/>
<path d="M600.146 257.786C603.87 264.884 594.597 269.689 592.379 278.752C590.161 287.815 600.1 290.421 588.446 301.37C581.269 308.113 579.507 304.244 577.451 318.552C575.64 331.148 566.141 319.785 559.833 327.469C551.695 337.383 537.232 317.418 543.606 306.612C549.98 295.805 558.15 298.054 554.046 288.181C549.942 278.308 553.871 270.479 562.897 266.575C574.069 261.742 578.661 271.657 580.325 263.046C581.989 254.435 595.22 248.398 600.146 257.786Z" fill="#E3E3E3"/>
<path d="M546.795 338.546C559.198 295.024 589.482 266.845 589.786 266.566L588.589 265.095C588.28 265.378 557.598 293.928 545.042 337.983L546.795 338.546Z" fill="black"/>
<path d="M94.1236 151.258C94.6577 154.699 96.4583 157.818 98.931 160.069C101.404 162.32 104.557 163.72 107.796 163.72H138.192C142.474 163.72 145.842 161.277 147.325 157.636C148.083 155.769 148.35 153.592 147.988 151.259C147.454 147.818 145.653 144.699 143.189 142.448C140.708 140.197 137.563 138.797 134.324 138.797H103.928C102.429 138.797 101.042 139.099 99.8099 139.639C95.7089 141.45 93.305 145.97 94.1236 151.258Z" fill="#A8A8A9"/>
<path d="M136.654 176.247C137.818 176.247 138.644 175.042 138.287 173.865L134.205 160.413C133.976 159.66 133.316 159.15 132.571 159.15C131.407 159.15 130.581 160.354 130.938 161.531L135.02 174.983C135.249 175.736 135.909 176.247 136.654 176.247Z" fill="black"/>
<path d="M116.525 176.247C117.689 176.247 118.516 175.042 118.159 173.865L114.076 160.413C113.848 159.66 113.188 159.15 112.443 159.15C111.279 159.15 110.452 160.354 110.81 161.531L114.892 174.983C115.12 175.736 115.78 176.247 116.525 176.247Z" fill="black"/>
<path d="M99.1549 145.997C99.689 149.438 101.49 152.557 103.962 154.818C106.435 157.068 109.588 158.468 112.828 158.468H143.223C144.714 158.468 146.092 158.175 147.324 157.636C148.083 155.769 148.35 153.592 147.988 151.259C147.454 147.818 145.653 144.699 143.189 142.448C140.708 140.197 137.563 138.797 134.324 138.797H103.928C102.429 138.797 101.042 139.099 99.8099 139.639C99.0602 141.505 98.7931 143.673 99.1549 145.997Z" fill="#D9D9D9"/>
<path d="M228.846 399.999H223.118V411.32H228.846V399.999Z" fill="black"/>
<path d="M185.888 399.999H180.161V411.32H185.888V399.999Z" fill="black"/>
<path d="M137.874 399.999H132.146V411.32H137.874V399.999Z" fill="black"/>
<path d="M136.432 418.62C138.845 418.62 140.801 415.336 140.801 411.285C140.801 407.233 138.845 403.949 136.432 403.949C134.02 403.949 132.064 407.233 132.064 411.285C132.064 415.336 134.02 418.62 136.432 418.62Z" fill="black"/>
<path d="M140.666 418.62C143.079 418.62 145.034 415.336 145.034 411.285C145.034 407.233 143.079 403.949 140.666 403.949C138.253 403.949 136.297 407.233 136.297 411.285C136.297 415.336 138.253 418.62 140.666 418.62Z" fill="black"/>
<path d="M142.35 418.026C140.533 419.532 135.453 418.85 134.743 418.071L134.71 404.54C136.074 403.272 140.883 403.317 142.348 404.47L142.35 418.026Z" fill="black"/>
<path d="M141.078 416.112C142.731 416.112 144.072 413.862 144.072 411.086C144.072 408.31 142.731 406.059 141.078 406.059C139.425 406.059 138.084 408.31 138.084 411.086C138.084 413.862 139.425 416.112 141.078 416.112Z" fill="white"/>
<path d="M140.761 414.293C141.769 414.293 142.585 412.921 142.585 411.23C142.585 409.538 141.769 408.167 140.761 408.167C139.754 408.167 138.937 409.538 138.937 411.23C138.937 412.921 139.754 414.293 140.761 414.293Z" fill="black"/>
<path d="M182.16 418.62C184.573 418.62 186.529 415.336 186.529 411.285C186.529 407.233 184.573 403.949 182.16 403.949C179.748 403.949 177.792 407.233 177.792 411.285C177.792 415.336 179.748 418.62 182.16 418.62Z" fill="black"/>
<path d="M177.927 418.62C180.34 418.62 182.296 415.336 182.296 411.285C182.296 407.233 180.34 403.949 177.927 403.949C175.514 403.949 173.559 407.233 173.559 411.285C173.559 415.336 175.514 418.62 177.927 418.62Z" fill="black"/>
<path d="M176.243 418.026C178.06 419.532 183.14 418.85 183.85 418.071L183.883 404.54C182.519 403.272 177.71 403.317 176.245 404.47L176.243 418.026Z" fill="black"/>
<path d="M177.515 416.112C179.168 416.112 180.509 413.862 180.509 411.086C180.509 408.31 179.168 406.059 177.515 406.059C175.862 406.059 174.521 408.31 174.521 411.086C174.521 413.862 175.862 416.112 177.515 416.112Z" fill="white"/>
<path d="M177.831 414.293C178.839 414.293 179.656 412.921 179.656 411.23C179.656 409.538 178.839 408.167 177.831 408.167C176.824 408.167 176.007 409.538 176.007 411.23C176.007 412.921 176.824 414.293 177.831 414.293Z" fill="black"/>
<path d="M225.793 418.62C228.205 418.62 230.161 415.336 230.161 411.285C230.161 407.233 228.205 403.949 225.793 403.949C223.38 403.949 221.424 407.233 221.424 411.285C221.424 415.336 223.38 418.62 225.793 418.62Z" fill="black"/>
<path d="M221.559 418.62C223.972 418.62 225.928 415.336 225.928 411.285C225.928 407.233 223.972 403.949 221.559 403.949C219.147 403.949 217.191 407.233 217.191 411.285C217.191 415.336 219.147 418.62 221.559 418.62Z" fill="black"/>
<path d="M219.875 418.026C221.692 419.532 226.772 418.85 227.483 418.071L227.515 404.54C226.151 403.272 221.342 403.317 219.877 404.47L219.875 418.026Z" fill="black"/>
<path d="M221.147 416.112C222.801 416.112 224.141 413.862 224.141 411.086C224.141 408.31 222.801 406.059 221.147 406.059C219.494 406.059 218.154 408.31 218.154 411.086C218.154 413.862 219.494 416.112 221.147 416.112Z" fill="#C8C8C8"/>
<path d="M221.464 414.293C222.471 414.293 223.288 412.921 223.288 411.23C223.288 409.538 222.471 408.167 221.464 408.167C220.456 408.167 219.64 409.538 219.64 411.23C219.64 412.921 220.456 414.293 221.464 414.293Z" fill="black"/>
<path d="M188.04 305.762H179.696V398.045H188.04V305.762Z" fill="black"/>
<path d="M232.819 401.113C232.831 401.037 232.885 400.963 232.885 400.886C232.885 396.002 210.14 392.041 182.083 392.041C154.026 392.041 131.281 396.002 131.281 400.886C131.281 400.963 131.336 401.037 131.346 401.113H232.819Z" fill="#C8C8C8"/>
<path d="M176.936 333.155H190.5V315.589H176.936V333.155Z" fill="#C8C8C8"/>
<path d="M176.936 394.983H190.5V377.417H176.936V394.983Z" fill="#C8C8C8"/>
<path d="M158.382 167.94V167.959C158.203 167.94 158.024 167.94 157.845 167.94H158.382Z" fill="#4A82DB"/>
<path d="M94.0303 176.661C94.0303 177.537 94.1288 178.441 94.335 179.374L122.449 294.772C122.575 295.334 122.727 295.886 122.924 296.428C125.004 305.224 132.551 311.335 141.111 311.087L170.503 310.278H228.425C231.929 310.278 235.085 308.822 237.37 306.47C239.665 304.119 241.09 300.873 241.09 297.285C241.09 296.009 240.902 294.791 240.543 293.649C238.921 288.384 233.83 284.786 228.084 284.786C228.084 284.786 202.036 285.538 194.444 277.79C186.843 270.032 169.718 179.897 169.718 179.897C168.266 173.491 162.162 168.256 155.914 167.961C155.726 167.941 155.538 167.941 155.359 167.941C155.359 167.941 116.036 167.57 103.98 167.627C103.065 167.627 102.303 167.637 101.73 167.646C101.201 167.656 100.869 167.666 100.753 167.675C100.726 167.685 100.717 167.685 100.717 167.685C96.6477 168.637 94.0303 172.159 94.0303 176.661ZM131.009 284.301H131.744L132.076 285.834L131.61 285.167L131.009 284.301Z" fill="#C8C8C8"/>
<path d="M133.774 310.32C133.763 310.377 133.711 310.433 133.711 310.491C133.711 314.162 155.397 317.139 182.148 317.139C208.899 317.139 230.585 314.162 230.585 310.491C230.585 310.433 230.533 310.377 230.522 310.32H133.774Z" fill="#B6B6B6"/>
<path d="M94.0303 176.661C94.0303 177.536 94.1288 178.44 94.335 179.373L122.449 294.771C122.575 295.333 122.727 295.885 122.924 296.427C125.004 305.223 132.551 311.334 141.111 311.087L170.503 310.277H228.425C231.929 310.277 235.085 308.821 237.37 306.47C239.665 304.119 241.09 300.873 241.09 297.284C241.09 296.008 240.902 294.79 240.543 293.648C237.228 302.811 140.415 303.455 133.683 291.591C127.104 285.527 113.024 182.257 103.98 167.627C103.066 167.627 102.304 167.636 101.73 167.646C101.201 167.655 100.87 167.665 100.753 167.674C100.726 167.684 100.717 167.684 100.717 167.684C96.6477 168.636 94.0303 172.158 94.0303 176.661Z" fill="black"/>
<path d="M142.906 182.412C151.849 175.336 182.537 169.842 202.176 179.619C205.297 182.756 209.786 194.149 212.591 204.856L220.352 294.229H153.953L142.906 182.412Z" fill="#D6D6D6"/>
<path d="M178.508 186.558C167.951 188.189 161.386 180.365 159.843 177.094L164.091 149.085L172.682 153.157C176.192 153.465 179.701 154.359 182.719 155.624L185.442 170.562L186.043 173.802C187.413 176.99 189.064 184.926 178.508 186.558Z" fill="#F7A594"/>
<path d="M166.839 156.198C167.182 159.664 171.476 173.707 185.731 172.248L183.085 157.638L166.839 156.198Z" fill="#E6836F"/>
<path d="M200.021 138.697C199.533 143.25 198.345 153.199 196.692 157.362C194.177 163.698 186.397 168.826 181.316 167.954C175.584 166.473 168.71 161.809 165.891 156.411C164.571 152.626 162.425 144.021 162.357 137.178C162.214 122.903 173.844 114.86 184.917 116.194C195.989 117.528 201.544 124.505 200.021 138.697Z" fill="#F7A594"/>
<path d="M163.2 146.871C162.337 141.879 165.854 141.286 168.041 145.724C168.517 142.373 168.163 131.909 172.156 129.96C176.697 127.664 191.055 134.706 201.941 128.818C201.941 128.818 200.535 112.758 178.314 113.715C152.175 117.977 163.2 146.871 163.2 146.871Z" fill="black"/>
<path d="M164.982 150.599C167.096 149.899 168.117 146.974 167.264 144.066C166.41 141.159 164.004 139.369 161.891 140.069C159.777 140.769 158.756 143.693 159.609 146.601C160.463 149.509 162.869 151.299 164.982 150.599Z" fill="#F7A594"/>
<path d="M191.651 157.714C190.799 157.88 189.3 158.633 187.819 159.466C185.67 160.677 183.563 162.057 183.563 162.057C183.563 162.057 177.201 157.973 177.376 151.415C177.462 151.516 177.549 151.613 177.638 151.711C182.58 157.121 191.651 157.714 191.651 157.714Z" fill="#A65B4A"/>
<path d="M191.651 157.714C190.799 157.88 189.3 158.633 187.819 159.466C181.37 157.898 178.718 154.216 177.638 151.711C182.58 157.121 191.651 157.714 191.651 157.714Z" fill="white"/>
<path d="M191.31 154.536C190.018 154.451 189.01 153.655 188.994 153.642C188.878 153.549 188.856 153.374 188.944 153.251C189.031 153.128 189.196 153.104 189.312 153.197C189.397 153.266 191.417 154.85 193.247 153.349C194.252 152.525 193.99 151.974 193.29 150.5C192.626 149.103 191.623 146.992 191.275 143.402C191.26 143.248 191.366 143.111 191.51 143.096C191.654 143.08 191.784 143.191 191.799 143.345C192.137 146.832 193.113 148.888 193.76 150.249C194.482 151.769 194.918 152.686 193.568 153.792C192.808 154.415 192.017 154.582 191.31 154.536Z" fill="#A65B4A"/>
<path d="M184.296 140.759C184.235 141.81 183.743 142.632 183.198 142.597C182.653 142.561 182.261 141.68 182.322 140.63C182.383 139.579 182.874 138.756 183.419 138.792C183.964 138.828 184.357 139.709 184.296 140.759Z" fill="#1E1E1E"/>
<path d="M198.127 141.447C198.071 142.404 197.624 143.154 197.127 143.121C196.631 143.089 196.273 142.287 196.328 141.33C196.384 140.373 196.832 139.623 197.328 139.656C197.825 139.688 198.182 140.49 198.127 141.447Z" fill="#1E1E1E"/>
<path d="M199.127 129.569C199.127 129.569 210.027 128.441 206.622 117.146C203.246 120.793 199.811 119.01 199.811 119.01C199.811 119.01 203.815 113.68 197.194 105.879C196.138 110.744 187.044 112.885 181.838 111.452C173.594 109.182 165.252 112.314 164.367 120.763C164.367 120.763 158.972 122.159 160.852 133.545C169.181 133.234 172.867 125.169 179.01 124.001C185.153 122.833 190.38 130.883 199.127 129.569Z" fill="black"/>
<path d="M188.601 166.195C188.601 166.195 184.711 167.164 182.573 167.11C179.75 167.039 175.287 165.38 175.287 165.38L182.695 169.589L188.601 166.195Z" fill="#A65B4A"/>
<path d="M181.361 186.799L180.312 190.811L187.792 240.583L183.842 248.669L176.8 240.644L177.965 190.872L176.266 188.217L178.251 185.198L181.361 186.799Z" fill="#515151"/>
<path d="M185.843 172.331C185.698 178.241 181.353 181.597 178.236 184.965C168.997 182.403 161.989 176.392 159.941 170.824L155.583 175.419C156.359 182.605 161.78 190.034 170.027 197.611C171.284 193.757 173.215 190.211 178.708 187.022L191.071 190.759C191.771 185.653 192.315 180.893 189.505 174.892L185.843 172.331Z" fill="black"/>
<path d="M254.313 418.053C258.727 418.053 258.727 410.432 254.313 410.432C254.313 410.432 236.753 405.227 236.241 405.227C235.73 405.227 216.976 405.785 216.976 405.785C214.5 409.433 215.325 414.585 215.586 418.548L254.313 418.053Z" fill="black"/>
<path d="M154.375 418.2C154.05 414.254 153.523 410.047 156.087 406.46C160.459 404.752 168.729 400.807 177.246 405.909C177.246 405.909 177.41 408.46 184.015 411.359C185.658 413.34 186.319 415.334 185.57 418.2L154.375 418.2Z" fill="black"/>
<path d="M216.268 405.224L234.793 304.104L180.111 294.26L180.112 266.534C180.112 266.534 222.785 266.566 222.192 266.566C220.318 266.566 262.312 263.485 268.194 287.695C274.076 311.906 238.42 404.926 238.42 404.926C233.327 404.183 221.596 407.936 217.22 409.394C213.48 410.64 212.454 408.382 216.268 405.224Z" fill="#0D192B"/>
<path d="M212.897 266.566L171.682 302.301L175.083 405.705C164.21 399.336 152.298 411.481 151.382 410.082C151.382 410.082 150.065 409.414 152.253 403.879C148.082 381.619 132.884 298.18 137.617 288.902C143.084 278.183 152.255 265.936 152.255 265.936L212.897 266.566Z" fill="#0D192B"/>
<path d="M156.709 174.257C157.339 176.937 164.79 256.389 164.159 268.448C163.529 280.507 135.864 283.157 136.402 307.975C136.972 334.335 137.723 345.754 137.723 345.754C127.47 344.161 121.968 331.413 120.468 322.65C118.112 307.433 119.798 290.135 130.471 268.208C130.471 268.208 133.321 185.249 136.874 182.565C143.212 177.776 156.709 174.257 156.709 174.257Z" fill="white"/>
<path d="M151.153 209.942C151.153 209.942 147.603 220.946 147.603 225.506C147.603 230.065 168.384 239.647 168.384 239.647H134.436V222.588L151.153 209.942Z" fill="#C8C8C8"/>
<path d="M170.003 243.062C170.003 243.062 174.077 239.154 180.535 238.61C186.993 238.066 192.657 251.117 192.657 251.117H170.31L170.003 243.062Z" fill="#F7B28A"/>
<path d="M182.25 238.773C182.25 238.773 192.414 241.825 193.832 242.226C194.495 245.073 187.501 243.844 184.265 242.578C180.7 241.184 182.25 238.773 182.25 238.773Z" fill="#F7B28A"/>
<path d="M137.67 181.736C131.463 185.824 114.358 228.655 114.195 240.182C114.123 245.265 116.13 250.302 125.222 250.922C130.244 251.264 172.861 251.653 172.861 251.653L172.319 239.647L140.195 229.91L150.008 212.617C161.744 206.202 151.693 173.782 137.67 181.736Z" fill="white"/>
<path d="M247.997 181.548C247.997 181.548 244.063 171.324 244.546 168.539C245.03 165.754 254.706 162.154 255.184 163.39C255.663 164.627 256.669 167.676 250.335 169.512C254.579 173.665 259.342 181.941 247.997 181.548Z" fill="#F7A594"/>
<path d="M247.486 182.011C247.486 182.011 246.683 172.792 248.091 169.082C249.965 164.141 255.506 160.963 255.506 160.963C255.506 160.963 265.303 169.129 265.603 170.605C265.903 172.082 257.741 181.123 257.741 181.123C257.741 181.123 251.66 187.258 247.486 182.011Z" fill="#F7A594"/>
<path d="M248.646 169.917C248.646 169.917 251.042 146.915 254.455 147.582C256.029 147.89 253.813 169.856 253.813 169.856L248.646 169.917Z" fill="#F7A594"/>
<path d="M246.897 178.648C246.92 178.655 246.945 178.655 246.969 178.646C247.029 178.623 247.061 178.552 247.039 178.488C246.03 175.48 244.378 170.191 244.661 168.561C245.033 166.413 251.371 163.589 254.104 163.287C254.918 163.197 255.055 163.379 255.077 163.437C255.393 164.253 255.65 165.228 255.164 166.277C254.557 167.586 252.922 168.635 250.304 169.393L250.102 169.452L250.256 169.603C252.019 171.327 254.125 174.04 254.751 176.481C254.768 176.548 254.832 176.586 254.893 176.568C254.955 176.55 254.992 176.483 254.975 176.417C254.354 173.995 252.319 171.325 250.566 169.572C253.134 168.798 254.751 167.727 255.372 166.386C255.97 165.096 255.495 163.868 255.292 163.343C255.183 163.063 254.787 162.964 254.08 163.042C251.31 163.348 244.835 166.195 244.432 168.517C244.14 170.203 245.803 175.54 246.82 178.571C246.833 178.61 246.863 178.637 246.897 178.648Z" fill="#E6836F"/>
<path d="M258.676 174.28C258.708 174.29 258.741 174.299 258.773 174.308L258.853 174.327L258.897 174.253C260.288 171.922 263.606 170.982 263.639 170.973C263.701 170.956 263.739 170.889 263.722 170.823C263.707 170.757 263.642 170.717 263.581 170.734C263.442 170.773 260.21 171.688 258.747 174.046C258.744 174.045 258.741 174.044 258.737 174.043C256.655 173.406 253.729 168.177 253.699 168.124C253.667 168.066 253.596 168.045 253.541 168.08C253.485 168.115 253.467 168.19 253.5 168.249C253.623 168.471 256.503 173.616 258.676 174.28Z" fill="#E6836F"/>
<path d="M247.864 179.054L244.317 193.413L255.252 197.14L256.591 180.744L247.864 179.054Z" fill="#F7A594"/>
<path d="M214.345 186.087L236.706 209.942L246.652 182.512L259.666 186.864C259.666 186.864 259.507 226.948 248.215 235.581C230.922 246.799 201.293 212.569 201.293 212.569C189.704 195.358 207.413 176.105 214.345 186.087Z" fill="white"/>
<path d="M189.643 175.249C189.643 175.249 195.616 262.396 206.341 269.765C217.065 277.135 254.964 272.116 254.964 272.116C254.964 272.116 217.151 257.729 216.52 247.009C215.889 236.29 213.448 185.198 213.448 185.198C209.938 180.621 198.794 175.198 189.643 175.249Z" fill="white"/>
<mask id="mask0_120_6970" style="mask-type:luminance" maskUnits="userSpaceOnUse" x="138" y="158" width="63" height="77">
<path d="M185.844 172.504L188.265 195.552C188.265 195.552 177.282 217.41 184.523 223.113C191.764 228.815 198.435 222.681 200.387 208.425C202.34 194.169 195.099 167.904 188.672 162.806C182.245 157.709 158.895 158.141 156.617 161.078C154.339 164.016 131.548 218.154 140.527 229.255C149.506 240.355 178.452 230.251 178.452 230.251L173.762 198.088L161.031 188.553C161.031 188.553 160.283 171.059 160.37 171.336C160.457 171.613 162.145 162.764 162.145 162.764C170.142 160.309 176.195 160.004 184.086 163.387L185.844 172.504Z" fill="white"/>
</mask>
<g mask="url(#mask0_120_6970)">
<path d="M194.829 216.83C195.473 213.125 194.4 209.809 192.434 209.424C190.467 209.038 188.351 211.729 187.707 215.434C187.063 219.139 188.135 222.455 190.102 222.841C192.068 223.226 194.185 220.535 194.829 216.83Z" fill="#8A9093"/>
<path d="M191.417 215.912C190.997 218.326 191.696 220.486 192.977 220.737C194.258 220.988 195.637 219.235 196.056 216.821C196.476 214.408 195.777 212.248 194.496 211.996C193.215 211.745 191.836 213.498 191.417 215.912Z" fill="black"/>
<path d="M192.781 211.138C193.079 211.138 193.325 210.887 193.332 210.568C193.336 210.435 193.645 197.046 191.773 183.028C190.04 170.05 179.862 163.767 171.138 163.422C162.682 163.085 156.16 167.995 154.527 175.924C153.057 183.06 154.961 195.235 155.042 195.749C155.093 196.068 155.376 196.284 155.678 196.229C155.978 196.176 156.18 195.874 156.13 195.555C156.11 195.431 154.18 183.088 155.605 176.174C157.118 168.826 163.206 164.281 171.097 164.593C179.377 164.92 189.037 170.881 190.681 183.193C192.54 197.11 192.234 210.405 192.23 210.538C192.222 210.861 192.463 211.13 192.767 211.139C192.772 211.138 192.777 211.138 192.781 211.138Z" fill="#0D192B"/>
<path d="M150.284 229.266L153.785 228.788C154.087 228.747 154.301 228.453 154.262 228.132C154.223 227.812 153.946 227.585 153.644 227.626L150.995 227.988C147.397 218.099 147.191 207.476 150.518 202.027C152.158 199.34 154.578 197.907 157.712 197.766C160.651 197.633 163.237 198.665 165.409 200.829C172.021 207.415 173.086 222.604 173.24 225.865L171.234 225.784C170.937 225.763 170.674 226.024 170.662 226.347C170.651 226.67 170.888 226.942 171.192 226.954L174.379 227.083L174.366 226.462C174.35 225.699 173.894 207.677 166.165 199.976C163.768 197.588 160.909 196.451 157.666 196.596C154.155 196.753 151.438 198.366 149.592 201.39C147.743 204.42 146.87 208.784 147.067 214.009C147.248 218.789 148.334 224.057 150.126 228.843L150.284 229.266Z" fill="#0D192B"/>
<path d="M159.868 195.823L159.837 198.712C159.837 198.712 156.75 197.414 153.666 199.535C152.877 198.376 152.321 197.504 152.321 197.504C152.321 197.504 154.787 194.668 159.868 195.823Z" fill="#A0A0A0"/>
<path d="M157.555 196.842L156.962 193.555C156.1 193.056 154.252 193.586 153.97 194.3L154.654 197.499L157.555 196.842Z" fill="#A0A0A0"/>
</g>
<path d="M201.822 239.721C205.415 239.332 212.967 234.349 214.769 232.7L236.706 251.538H202.717L201.822 239.721Z" fill="black"/>
<path d="M233.498 251.596C232.576 251.596 205.108 233.8 205.108 233.8C199.07 239.103 192.753 241.682 186.366 243.588C188.232 247.525 190.965 250.178 194.013 251.655L233.498 251.596Z" fill="#959595"/>
<path d="M96.8807 251.527H130.772V245.933H96.8807V251.527Z" fill="#AAAAAA"/>
<path d="M68.0274 251.527H96.8809V245.933H68.0274V251.527Z" fill="#858585"/>
<path d="M126.192 247.757H99.0562L111.651 250.432L126.192 247.757Z" fill="black"/>
<path d="M113.037 258.389H107.342V416.985H113.037V258.389Z" fill="black"/>
<path d="M113.037 258.453H107.342V272.067H113.037V258.453Z" fill="black"/>
<path d="M365.229 417.647H370.924V390.112H365.229V417.647Z" fill="black"/>
<path d="M330.952 417.647H336.647V390.112H330.952V417.647Z" fill="black"/>
<path d="M59.1856 256.694V417.872L53.7695 416.96V256.694H59.1856Z" fill="black"/>
<path d="M259.554 417.647H265.25V390.112H259.554V417.647Z" fill="black"/>
<path d="M289.456 417.647H295.151V390.112H289.456V417.647Z" fill="black"/>
<path d="M38.197 258.377L313.152 258.377V251.563L38.197 251.563V258.377Z" fill="black"/>
<path d="M292.668 257.793H257.475V390.548H292.668V257.793Z" fill="#9C9C9C"/>
<path d="M374.36 257.793H287.782V390.548H374.36V257.793Z" fill="#9C9C9C"/>
<path d="M372.007 262.4H292.09V390.548H372.007V262.4Z" fill="#D7D7D7"/>
<path d="M99.529 258.377L374.484 258.377V251.563L99.529 251.563V258.377Z" fill="#CCCCCC"/>
<path d="M326.038 251.563H341.207L338.217 224.017H323.047L326.038 251.563Z" fill="#ADADAD"/>
<path d="M321.624 224.017L321.635 224.129L323.252 239.008L324.614 251.562H339.785L337.006 225.953L336.997 225.875L336.795 224.017H321.624Z" fill="#474747"/>
<path d="M303.989 251.511H352.174V248.69H303.989V251.511Z" fill="#ADADAD"/>
<path d="M339.185 248.69H300.623V251.511H339.185V248.69Z" fill="#474747"/>
<path d="M321.635 224.129L323.252 239.008L337.006 225.953L337.077 225.885L336.997 225.875L321.635 224.129Z" fill="#2B2B2B"/>
<path d="M282.989 225.788H365.305C367.098 225.788 368.671 224.244 368.819 222.34L373.521 161.621C373.668 159.717 372.334 158.174 370.541 158.174H288.225C286.432 158.174 284.859 159.717 284.712 161.621L280.01 222.34C279.862 224.244 281.196 225.788 282.989 225.788Z" fill="#ADADAD"/>
<path d="M281.464 225.712H363.78C365.573 225.712 367.146 224.168 367.294 222.264L371.996 161.546C372.143 159.642 370.809 158.098 369.016 158.098H286.7C284.907 158.098 283.334 159.642 283.187 161.546L278.485 222.264C278.337 224.168 279.671 225.712 281.464 225.712Z" fill="#474747"/>
<path d="M283.272 220.745H363.196L367.551 162.833H287.627L283.272 220.745Z" fill="white"/>
<path d="M289.791 248.689H264.596V251.511H289.791V248.689Z" fill="#ADADAD"/>
<path d="M238.239 250.425V251.511H264.596V248.689L238.239 250.425Z" fill="#474747"/>
<path d="M297.405 210.715L352.207 210.012C354.51 209.982 356.517 207.911 356.69 205.386L358.732 175.602C358.906 173.077 357.179 171.054 354.875 171.083L300.073 171.787C297.77 171.817 295.763 173.888 295.589 176.413L293.548 206.196C293.374 208.722 295.101 210.745 297.405 210.715Z" fill="#ECECEC"/>
<path d="M302.146 184.159L318.24 183.952C318.747 183.945 319.189 183.49 319.227 182.934C319.265 182.378 318.885 181.933 318.378 181.939L302.284 182.146C301.777 182.152 301.336 182.608 301.298 183.164C301.259 183.72 301.639 184.165 302.146 184.159Z" fill="black"/>
<path d="M301.769 189.656L323.212 189.381C323.719 189.375 324.161 188.919 324.199 188.363C324.237 187.807 323.857 187.362 323.35 187.368L301.907 187.644C301.4 187.65 300.958 188.106 300.92 188.662C300.882 189.217 301.262 189.663 301.769 189.656Z" fill="black"/>
<path d="M301.325 196.131L322.768 195.856C323.275 195.85 323.717 195.394 323.755 194.838C323.793 194.282 323.413 193.837 322.906 193.843L301.463 194.119C300.956 194.125 300.514 194.581 300.476 195.137C300.438 195.693 300.818 196.138 301.325 196.131Z" fill="black"/>
<path d="M300.882 202.607L322.324 202.332C322.831 202.325 323.273 201.869 323.311 201.313C323.349 200.758 322.969 200.312 322.462 200.319L301.019 200.594C300.512 200.601 300.07 201.056 300.032 201.612C299.995 202.168 300.375 202.613 300.882 202.607Z" fill="black"/>
<path d="M342.734 184.565C341.069 186.087 339.901 197.082 342.061 200.168C343.05 201.581 344.757 201.595 346.24 201.993C347.994 202.464 349.406 204.547 350.135 203.558C351.481 201.733 351.806 194.394 349.568 189.65C348.789 187.999 344.398 183.044 342.734 184.565Z" fill="black"/>
<path d="M335.801 184.565C337.466 186.087 338.634 197.082 336.474 200.168C335.485 201.581 333.778 201.595 332.295 201.993C330.541 202.464 329.129 204.547 328.4 203.558C327.054 201.733 326.729 194.394 328.967 189.65C329.746 187.999 334.137 183.044 335.801 184.565Z" fill="black"/>
<path d="M338.367 188.775V177.134H339.922V188.604H339.923C339.924 188.699 339.97 190.945 342.112 191.446L341.853 192.693C340.429 192.36 339.609 191.443 339.167 190.504C338.736 191.473 337.908 192.436 336.441 192.78L336.182 191.533C338.118 191.08 338.342 189.203 338.367 188.775Z" fill="black"/>
<path d="M377.615 409.15H383.343V397.829H377.615V409.15Z" fill="#0D192B"/>
<path d="M420.573 409.15H426.301V397.829H420.573V409.15Z" fill="black"/>
<path d="M468.587 409.15H474.315V397.829H468.587V409.15Z" fill="black"/>
<path d="M470.029 416.45C472.442 416.45 474.398 413.166 474.398 409.115C474.398 405.064 472.442 401.78 470.029 401.78C467.617 401.78 465.661 405.064 465.661 409.115C465.661 413.166 467.617 416.45 470.029 416.45Z" fill="black"/>
<path d="M465.796 416.45C468.208 416.45 470.164 413.166 470.164 409.115C470.164 405.064 468.208 401.78 465.796 401.78C463.383 401.78 461.427 405.064 461.427 409.115C461.427 413.166 463.383 416.45 465.796 416.45Z" fill="black"/>
<path d="M464.111 415.857C465.929 417.363 471.009 416.681 471.719 415.902L471.751 402.37C470.388 401.102 465.578 401.147 464.113 402.301L464.111 415.857Z" fill="black"/>
<path d="M465.384 413.943C467.037 413.943 468.377 411.692 468.377 408.916C468.377 406.14 467.037 403.89 465.384 403.89C463.73 403.89 462.39 406.14 462.39 408.916C462.39 411.692 463.73 413.943 465.384 413.943Z" fill="white"/>
<path d="M465.701 412.123C466.708 412.123 467.525 410.752 467.525 409.06C467.525 407.368 466.708 405.997 465.701 405.997C464.693 405.997 463.876 407.368 463.876 409.06C463.876 410.752 464.693 412.123 465.701 412.123Z" fill="black"/>
<path d="M424.301 416.45C426.713 416.45 428.669 413.166 428.669 409.115C428.669 405.064 426.713 401.78 424.301 401.78C421.888 401.78 419.932 405.064 419.932 409.115C419.932 413.166 421.888 416.45 424.301 416.45Z" fill="black"/>
<path d="M428.534 416.45C430.947 416.45 432.902 413.166 432.902 409.115C432.902 405.064 430.947 401.78 428.534 401.78C426.121 401.78 424.166 405.064 424.166 409.115C424.166 413.166 426.121 416.45 428.534 416.45Z" fill="black"/>
<path d="M430.219 415.857C428.402 417.363 423.322 416.681 422.611 415.902L422.579 402.37C423.942 401.102 428.752 401.147 430.217 402.301L430.219 415.857Z" fill="black"/>
<path d="M428.946 413.943C430.6 413.943 431.94 411.692 431.94 408.916C431.94 406.14 430.6 403.89 428.946 403.89C427.293 403.89 425.953 406.14 425.953 408.916C425.953 411.692 427.293 413.943 428.946 413.943Z" fill="white"/>
<path d="M428.629 412.123C429.637 412.123 430.454 410.752 430.454 409.06C430.454 407.368 429.637 405.997 428.629 405.997C427.622 405.997 426.805 407.368 426.805 409.06C426.805 410.752 427.622 412.123 428.629 412.123Z" fill="black"/>
<path d="M380.669 416.45C383.081 416.45 385.037 413.166 385.037 409.115C385.037 405.064 383.081 401.78 380.669 401.78C378.256 401.78 376.3 405.064 376.3 409.115C376.3 413.166 378.256 416.45 380.669 416.45Z" fill="#0D192B"/>
<path d="M384.902 416.45C387.315 416.45 389.271 413.166 389.271 409.115C389.271 405.064 387.315 401.78 384.902 401.78C382.49 401.78 380.534 405.064 380.534 409.115C380.534 413.166 382.49 416.45 384.902 416.45Z" fill="#0D192B"/>
<path d="M386.587 415.857C384.77 417.363 379.69 416.681 378.98 415.902L378.947 402.37C380.311 401.102 385.12 401.147 386.585 402.301L386.587 415.857Z" fill="#0D192B"/>
<path d="M385.315 413.943C386.968 413.943 388.308 411.692 388.308 408.916C388.308 406.14 386.968 403.89 385.315 403.89C383.662 403.89 382.321 406.14 382.321 408.916C382.321 411.692 383.662 413.943 385.315 413.943Z" fill="#1E62CC"/>
<path d="M384.998 412.123C386.005 412.123 386.822 410.752 386.822 409.06C386.822 407.368 386.005 405.997 384.998 405.997C383.99 405.997 383.173 407.368 383.173 409.06C383.173 410.752 383.99 412.123 384.998 412.123Z" fill="#0D192B"/>
<path d="M418.422 395.876H426.766V303.592H418.422V395.876Z" fill="black"/>
<path d="M373.642 398.944C373.631 398.868 373.577 398.794 373.577 398.717C373.577 393.832 396.321 389.872 424.379 389.872C452.436 389.872 475.181 393.832 475.181 398.717C475.181 398.794 475.126 398.868 475.115 398.944H373.642Z" fill="#C8C8C8"/>
<path d="M429.525 313.42H415.962V330.985H429.525V313.42Z" fill="#C8C8C8"/>
<path d="M429.525 375.248H415.962V392.813H429.525V375.248Z" fill="#C8C8C8"/>
<path d="M448.079 165.771V165.79C448.258 165.771 448.437 165.771 448.616 165.771H448.079Z" fill="#4A82DB"/>
<path d="M505.744 165.516C505.744 165.516 505.735 165.516 505.708 165.506C505.592 165.497 505.26 165.487 504.732 165.477C504.158 165.468 503.396 165.458 502.482 165.458C490.426 165.401 451.103 165.772 451.103 165.772C450.924 165.772 450.735 165.772 450.547 165.792C444.299 166.087 438.195 171.322 436.743 177.728C436.743 177.728 419.618 267.863 412.017 275.621C404.425 283.369 378.377 282.617 378.377 282.617C372.632 282.617 367.54 286.216 365.918 291.48C365.559 292.622 365.371 293.84 365.371 295.116C365.371 298.705 366.796 301.95 369.091 304.302C371.377 306.653 374.532 308.109 378.037 308.109H435.959L473.559 308.919C482.119 309.166 489.666 303.055 491.746 294.259C491.943 293.717 492.095 293.165 492.221 292.603L512.126 177.205C512.332 176.272 512.431 175.368 512.431 174.492C512.431 169.989 509.814 166.468 505.744 165.516ZM483.06 282.998L482.594 283.664L482.926 282.132H483.661L483.06 282.998Z" fill="#C8C8C8"/>
<path d="M480.896 308.15C480.908 308.208 480.959 308.263 480.959 308.321C480.959 311.993 451.065 314.969 424.314 314.969C397.562 314.969 375.876 311.993 375.876 308.321C375.876 308.263 375.929 308.208 375.939 308.15H480.896Z" fill="#B6B6B6"/>
<path d="M512.431 174.492C512.431 175.367 512.332 176.272 512.126 177.204C511.376 179.513 492.787 292.112 491.746 294.255C489.666 303.054 482.119 309.165 473.559 308.918C451.299 308.154 400.729 307.964 378.036 308.109C369.947 308.285 363.354 299.736 365.918 291.479C363.125 305.478 471.751 307.193 483.127 288.847C491.219 282.416 486.745 160.232 505.742 165.514C509.814 166.468 512.431 169.989 512.431 174.492Z" fill="black"/>
<path d="M453.232 163.444C463.887 243.112 392.709 231.594 394.768 199.527C396.543 171.901 412.286 168.67 408.183 150.554C403.68 130.671 410.346 113.275 428.094 113.275C445.474 113.275 455.878 126.725 452.166 150.115C451.43 154.755 452.781 159.599 453.232 163.444Z" fill="#0E0E0E"/>
<path d="M386.527 386.479C386.657 387.27 389.118 402.543 389.118 402.543L399.011 401.642L400.446 382.926L386.527 386.479Z" fill="#FFA599"/>
<path d="M449.473 259.659C449.473 259.659 457.751 284.358 444.069 288.591C430.387 292.824 407.496 294.428 407.496 294.428L400.104 392.135C397.364 393.293 394.427 394.325 387.591 392.844C387.591 392.844 370.751 294.489 375.608 282.698C380.466 270.906 418.465 258.917 418.465 258.917L449.473 259.659Z" fill="#0D192B"/>
<path d="M401.999 404.194C401.263 406.201 395.562 409.053 389.182 411.133C384.822 412.557 380.143 413.617 376.517 413.801C374.252 413.917 372.399 413.692 371.289 412.997C371.289 412.997 368.473 405.263 374.729 401.001C380.984 396.737 388.044 395.885 388.044 395.885C388.947 397.254 390.411 398.153 392.22 398.378C393.431 398.528 394.797 398.376 396.253 397.861C397.423 397.447 398.65 396.8 399.901 395.885C399.901 395.885 400.472 396.523 401.06 397.568C401.12 397.67 401.178 397.774 401.235 397.883C402.054 399.45 402.809 401.762 401.999 404.194Z" fill="black"/>
<path d="M401.53 397.558L401.235 397.883L389.182 411.133C384.822 412.557 380.143 413.617 376.517 413.801C376.269 411.365 376.371 406.201 380.8 402.543C383.528 400.29 388.076 399.055 392.22 398.378C393.642 398.147 395.017 397.979 396.253 397.861C398.477 397.647 400.254 397.583 401.06 397.568C401.363 397.558 401.53 397.558 401.53 397.558Z" fill="#F5F5F5"/>
<path d="M395.808 388.889C395.939 389.679 396.995 404.943 396.995 404.943L405.489 404.828L407.924 388.574L395.808 388.889Z" fill="#FFA599"/>
<path d="M407.148 395.006C407.148 395.006 410.128 401.132 410.789 402.689C407.464 412.997 384.749 421.021 382.4 417.927C382.4 417.927 378.165 410.962 383.475 405.439C388.786 399.916 396.461 397.358 396.461 397.358C398.99 399.889 405.605 399.198 407.148 395.006Z" fill="black"/>
<path d="M471.996 263.151C471.996 263.151 476.476 284.67 459.416 290.502C445.851 295.139 422.534 304.6 422.534 304.6L407.731 392.161C407.108 394.023 397.246 394.714 395.995 393.22C395.995 393.22 392.557 296.831 399.379 286.193C409.852 269.86 424.05 259.878 424.05 259.878C438.416 258.127 459.367 256.491 471.996 263.151Z" fill="#0D192B"/>
<path d="M395.659 393.236C395.497 389.36 391.783 298.166 399.095 286.001C400.995 282.839 403.282 279.652 405.894 276.526L406.397 277.001C403.809 280.098 401.543 283.255 399.662 286.385C392.464 298.361 396.291 392.257 396.331 393.204L395.659 393.236Z" fill="#2A518C"/>
<path d="M416.149 183.157C423.165 174.018 428.392 179.455 428.081 189.726C427.771 199.996 421.235 244.748 413.411 241.673C405.586 238.597 407.343 194.629 416.149 183.157Z" fill="#FFA599"/>
<path d="M421.367 222.873L416.662 257.733C417.121 259.525 419.667 261.043 423.477 262.235C424.079 262.425 424.713 262.604 425.374 262.777C425.374 262.777 425.377 262.779 425.377 262.777C438.361 266.158 462.251 266.361 472.626 261.967C472.626 261.967 471.821 256.064 468.513 246.594C465.998 239.397 462.039 230.139 455.889 219.844C455.498 216.788 457.926 211.397 460.356 205.215C464.223 195.371 468.094 183.524 460.587 175.911C448.366 163.512 416.394 167.03 414.293 191.556C413.972 207.422 421.367 222.873 421.367 222.873Z" fill="#FD5655"/>
<path d="M421.769 264.67C421.991 264.632 423.305 263.91 425.374 262.777C425.374 262.777 425.377 262.779 425.377 262.777C434.223 257.94 456.905 245.575 467.456 246.574C467.83 246.609 468.182 246.615 468.513 246.594C465.998 239.397 462.039 230.139 455.889 219.844C455.499 216.788 457.926 211.397 460.356 205.215L446.546 188.568C446.546 188.568 446.595 188.947 446.681 189.632C447.419 195.63 450.926 225.159 449.033 229.927C447.299 234.288 429.227 255.068 423.478 262.235C422.229 263.794 421.56 264.707 421.769 264.67Z" fill="#E64847"/>
<path d="M425.155 177.952C425.559 180.903 429.138 188.747 429.138 188.747C429.138 188.747 443.948 178.976 443.42 175.128L441.018 164.809L439.449 158.099L424.359 160.431L424.88 171.895L425.155 177.952Z" fill="#FFA599"/>
<path d="M424.88 171.895L435.423 164.4L424.359 160.431L424.88 171.895Z" fill="#E87C5D"/>
<path d="M411.077 139.501C410.224 153.855 417.875 165.693 428.164 165.943C438.454 166.193 446.607 154.74 446.374 140.36C446.155 126.813 438.49 116.212 429.242 115.987C419.994 115.762 411.88 125.979 411.077 139.501Z" fill="#FFA599"/>
<path d="M423.711 129.42C436.56 146.91 455.069 139.957 450.804 129.496C450.804 129.496 445.844 115.085 430.852 114.851C412.104 114.558 423.711 129.42 423.711 129.42Z" fill="#0E0E0E"/>
<path d="M427.309 150.002C426.828 149.99 426.363 149.87 426.099 149.516C425.447 148.646 427.2 144.393 427.557 143.55C427.602 143.444 427.719 143.397 427.819 143.444C427.918 143.492 427.963 143.616 427.918 143.722C427.069 145.723 426.04 148.762 426.408 149.255C426.838 149.83 428.319 149.505 428.853 149.332C428.958 149.298 429.068 149.36 429.1 149.471C429.132 149.582 429.074 149.699 428.969 149.733C428.834 149.777 428.053 150.02 427.309 150.002Z" fill="#BD4A31"/>
<path d="M424.528 154.935C424.528 154.935 430.264 156.796 437.832 152.637C433.67 159.011 428.224 162.991 424.528 154.935Z" fill="#BD4A31"/>
<path d="M436.693 142.09C436.671 143.148 436.252 143.995 435.759 143.983C435.266 143.971 434.884 143.104 434.907 142.047C434.93 140.989 435.348 140.142 435.841 140.154C436.335 140.166 436.716 141.033 436.693 142.09Z" fill="#0E0E0E"/>
<path d="M419.479 141.253C419.456 142.311 419.037 143.158 418.544 143.146C418.051 143.134 417.669 142.267 417.692 141.21C417.715 140.152 418.133 139.305 418.626 139.316C419.12 139.329 419.501 140.196 419.479 141.253Z" fill="#0E0E0E"/>
<path d="M423.629 126.113C423.629 126.113 421.347 139.419 410.741 140.302C403.647 140.892 413.968 118.27 420.72 118.71C424.704 118.97 423.629 126.113 423.629 126.113Z" fill="#0E0E0E"/>
<path d="M463.007 181.166C463.007 181.166 457.492 174.795 448.616 181.88C441.35 187.681 453.631 224.644 453.631 224.644L417.409 261.162L420.184 264.877C420.184 264.877 463.533 245.576 469.053 230.321C470.945 220.663 467.266 187.908 463.007 181.166Z" fill="#FFA599"/>
<path d="M420.97 228.359L422.938 264.462L418.262 265.292C418.262 265.292 408.145 240.514 408.605 226.519C409.008 214.255 422.376 217.187 420.97 228.359Z" fill="#FFA599"/>
<path d="M423.408 262.217C423.408 262.217 428.536 265.474 426.068 267.681C423.6 269.889 414.709 269.76 417.25 263.882C419.79 258.005 423.408 262.217 423.408 262.217Z" fill="#FFA599"/>
<path d="M417.383 260.548C416.983 260.465 408.074 267.177 410.759 270.091C413.444 273.005 426.872 264.264 424.217 260.703C421.562 257.142 417.383 260.548 417.383 260.548Z" fill="#FFA599"/>
</g>
<defs>
<clipPath id="clip0_120_6970">
<rect width="630" height="420" fill="white" transform="translate(0 0.5)"/>
</clipPath>
</defs>
</svg>
