<svg width="773" height="432" viewBox="0 0 773 432" fill="none" xmlns="http://www.w3.org/2000/svg">
<path d="M740.376 380.396C729.075 411.302 707.084 424.942 686.058 430.539H68.422C10.1182 404.323 -20.9069 213.67 65.5518 167.29C112.929 141.874 145.565 137.462 154.776 97.4098C193.513 -71.035 332.407 34.0157 383.812 16.3342C566.629 -46.5598 539.199 261.602 653.114 233.666C705.392 220.849 773.556 289.652 740.376 380.396Z" fill="#F2F2F2" fill-opacity="0.58"/>
<path d="M324.504 274.916C324.504 274.916 383.5 258.069 398.319 274.097C411.3 288.138 446.504 343.72 448.357 376.617C450.158 408.582 416.315 429.599 381.5 429.599H319.668L324.504 274.916Z" fill="#D7D7D7"/>
<path d="M283.672 291.297C283.672 291.297 367.083 253.414 382.883 278.16C391.272 291.3 414.357 343.719 416.061 376.616C417.717 408.581 386.594 429.599 354.578 429.599H297.717L283.672 291.297Z" fill="#808080"/>
<path d="M119.209 174.758C119.209 174.758 222.961 171.95 262.566 172.037C282.941 172.082 282.436 187.501 292.225 205.366C311.831 241.146 344.385 302.691 341.796 312.308C338.108 325.999 199.222 335.477 189.389 332.318C179.556 329.158 119.209 174.758 119.209 174.758Z" fill="#A7A7A7"/>
<path d="M340.15 285.003L303.136 303.284C303.136 303.284 271.417 186.693 269.31 177.801C268.373 173.838 265.48 172.406 262.566 172.037C267.695 171.57 271.427 171.535 271.427 171.535C281.525 171.535 290.5 177.966 293.741 187.524C300.809 208.371 313.824 246.815 327.008 285.972C330.456 284.592 334.561 283.009 339.09 281.38L340.15 285.003Z" fill="#D7D7D7"/>
<path d="M266.065 291.318C266.065 291.318 385.685 280.728 400.432 294.848C407.279 301.404 411.124 331.091 413.278 361.017C415.965 398.346 385.705 430.288 348.483 429.754L218.806 429.812L266.065 291.318Z" fill="#A7A7A7"/>
<path d="M221.292 147.029C217.867 146.261 214.313 147.148 211.911 148.04C212.343 147.197 213.509 146.582 213.509 146.582C211.923 146.82 208.996 149.358 208.996 149.358C185.409 147.671 191.581 179.751 194.229 186.833C196.874 193.916 199.465 202.207 190.907 211.897C174.068 230.962 198.35 247.858 198.35 247.858C198.543 247.904 212.935 261.087 212.935 261.087C210.621 255.417 228.138 216.419 239.366 202.913C241.247 196.838 239.748 187.578 239.625 186.85C241.188 194.078 241.189 198.4 240.791 200.955C249.341 186.383 230.372 149.062 221.292 147.029Z" fill="black"/>
<path d="M311.749 203.015C312.1 202.489 315.084 193.362 318.244 193.538C321.404 193.713 326.32 194.24 327.549 193.889C328.778 193.538 332.899 190.427 333.605 191.168C335.361 193.011 331.411 198.715 328.602 199.593C325.793 200.47 321.229 199.154 320.176 200.207C319.122 201.26 319.298 205.034 319.298 205.034L311.749 203.015Z" fill="#FFB27D"/>
<path d="M395.303 405.019C394.96 408.743 400.145 409.648 406.151 409.947C412.157 410.246 410.342 411.476 418.573 412.966C426.804 414.457 430.102 412.205 430.698 411.093C431.229 410.107 427.402 408.564 423.324 406.82C422.811 406.603 422.297 406.378 421.783 406.154C417.193 404.136 414.618 400.021 411.039 396.205C407.65 392.591 404.432 381.02 404.432 381.02L393.246 378.632C393.246 378.632 396.387 389.046 397.477 393.492C398.119 396.107 397.172 399.031 396.332 401.257C395.88 402.467 395.423 403.707 395.303 405.019Z" fill="#FFB27D"/>
<path d="M406.151 409.947C412.157 410.246 410.342 411.476 418.573 412.967C426.804 414.457 430.102 412.205 430.698 411.093C431.229 410.107 427.402 408.564 423.324 406.82L423.26 406.89C423.26 406.89 417.473 408.854 410.793 407.039C405.348 405.561 400.084 402.308 396.333 401.257C395.88 402.467 395.423 403.707 395.304 405.019C394.96 408.743 400.145 409.648 406.151 409.947Z" fill="black"/>
<path d="M283.923 272.417C283.923 272.417 358.248 266.824 372.24 275.653C386.232 284.482 408.673 387.316 408.673 387.316C408.673 387.316 407.288 388.426 404.195 388.761C401.318 389.073 394.982 387.381 394.982 387.381C394.982 387.381 362.731 341.37 360.459 329.778C358.187 318.186 358.742 307.843 353.569 307.566C348.396 307.289 283.913 315.403 274.159 298.224C264.405 281.046 272.469 264.04 272.469 264.04L283.923 272.417Z" fill="black"/>
<path d="M319.168 214.045C314.115 226.836 301.911 247.683 298.758 248.473C296.1 249.136 283.105 246.17 272.547 242.568C266.368 240.459 261.028 238.132 259.082 236.187C253.816 230.922 236.48 199.988 236.48 199.988C236.48 199.988 252.763 197.926 260.487 202.489C268.211 207.052 286.82 228.114 289.629 227.412C292.438 226.71 305.78 203.191 311.047 201.085C311.047 201.085 319.122 199.33 321.229 204.946C321.759 206.357 320.867 209.744 319.168 214.045Z" fill="#699DEE"/>
<path d="M366.864 416.952C366.52 420.676 371.706 421.582 377.711 421.881C383.717 422.18 381.902 423.41 390.133 424.9C398.364 426.391 401.662 424.139 402.258 423.027C402.789 422.04 398.962 420.498 394.884 418.754C394.371 418.537 393.857 418.312 393.343 418.087C388.753 416.07 386.178 411.954 382.599 408.139C379.21 404.525 375.992 392.954 375.992 392.954L364.806 390.565C364.806 390.565 367.947 400.98 369.037 405.426C369.679 408.041 368.732 410.965 367.892 413.19C367.44 414.401 366.983 415.641 366.864 416.952Z" fill="#FFB27D"/>
<path d="M377.712 421.881C383.718 422.18 381.902 423.41 390.133 424.9C398.364 426.391 401.662 424.139 402.258 423.027C402.789 422.041 398.962 420.498 394.884 418.754L394.821 418.823C394.821 418.823 389.033 420.788 382.353 418.972C376.908 417.494 371.644 414.241 367.893 413.19C367.44 414.401 366.983 415.641 366.864 416.952C366.52 420.676 371.706 421.582 377.712 421.881Z" fill="black"/>
<path d="M319.168 214.044C314.115 226.835 301.911 247.682 298.758 248.472C296.1 249.136 283.105 246.169 272.547 242.568C268.176 238.84 265.494 235.618 265.055 234.962C265.402 235.092 290.015 244.422 294.895 242.329C299.319 240.433 311.84 219.074 319.168 214.044Z" fill="#4A75CB"/>
<path d="M238.674 203.627C238.754 203.637 232.989 209.285 227.405 209.449C222.154 209.608 217.068 204.291 217.13 204.256C219.059 203.222 218.789 200.221 215.044 188.115L216.028 188.015L232.575 186.34C232.575 186.34 233.72 191.358 235.122 195.986C236.298 199.872 237.658 203.483 238.674 203.627Z" fill="#FFB27D"/>
<path d="M232.575 186.339C232.575 186.339 233.72 191.357 235.122 195.985C226.315 198.405 219.267 191.85 216.027 188.014L232.575 186.339Z" fill="#E2915A"/>
<path d="M269.366 277.021C269.366 277.021 335.391 280.146 349.029 289.512C362.667 298.879 381.088 402.509 381.088 402.509C381.088 402.509 379.66 403.564 376.556 403.778C373.67 403.978 367.404 402.041 367.404 402.041C367.404 402.041 336.969 354.81 335.151 343.138C333.332 331.467 334.288 321.153 329.13 320.675C323.972 320.197 259.222 325.796 250.145 308.25C241.067 290.705 269.366 277.021 269.366 277.021Z" fill="black"/>
<path d="M213.897 186.807C213.897 186.807 207.113 180.976 204.127 175.13C201.995 170.957 199.247 153.914 216.408 151.25C216.408 151.25 221.326 150.263 226.741 151.923C231.046 153.244 237.787 156.875 236.387 172.906L236.364 178.185L213.897 186.807Z" fill="black"/>
<path d="M269.732 282.637C269.153 282.64 268.338 282.602 267.384 282.528C263.525 282.233 257.373 281.408 255.221 280.766C237.055 275.339 219.601 268.645 212.168 245.131C211.269 242.287 210.518 239.198 209.928 235.836L212.761 225.038L218.288 202.246C218.288 202.246 225.085 205.879 231.402 204.479C234.635 203.759 236.479 199.989 236.479 199.989C236.479 199.989 270.67 213.37 282.256 241.101C293.843 268.832 297.821 264.619 301.332 270.587C304.843 276.554 289.279 282.521 269.732 282.637Z" fill="#699DEE"/>
<path d="M236.829 189.828C236.829 189.828 216.274 196.476 212.33 183.615C208.386 170.753 203.076 162.95 216.034 158.161C228.991 153.373 233.058 157.495 235.419 161.468C237.78 165.441 242.074 187.768 236.829 189.828Z" fill="#FFB27D"/>
<path d="M225.347 154.974C225.347 154.974 224.301 171.794 216.301 176.676C208.302 181.558 203.826 180.383 203.826 180.383C203.826 180.383 208.87 173.061 207.432 163.408C207.432 163.408 218.885 149.092 225.347 154.974Z" fill="black"/>
<path d="M224.319 156.628C224.319 156.628 229.573 158.708 231.603 161.67C233.634 164.632 236.157 171.234 238.053 170.405C238.053 170.405 239.181 158.844 232.619 154.503C225.661 149.9 224.319 156.628 224.319 156.628Z" fill="black"/>
<path d="M267.383 282.529C263.525 282.234 257.373 281.409 255.221 280.766C237.055 275.34 219.601 268.645 212.168 245.131C212.14 244.959 212.108 244.787 212.077 244.611L214.598 242.628C219.752 238.574 226.704 237.647 232.746 240.196C247.096 246.254 266.808 257.237 267.383 282.529Z" fill="#4A75CB"/>
<path d="M218.288 202.247C218.288 202.247 197.053 205.437 193.542 218.759C190.031 232.081 186.91 275.606 190.071 279.044C193.231 282.482 202.671 278.494 204.778 276.775C206.884 275.056 217.769 230.792 217.769 230.792C217.769 230.792 223.093 210.785 218.288 202.247Z" fill="#699DEE"/>
<path d="M250.617 263.418C250.617 263.418 262.832 261.055 264.211 261.646C265.59 262.236 273.273 269.13 272.485 270.509C271.697 271.887 268.545 272.872 264.999 271.691C261.453 270.509 253.769 269.918 252.39 268.145C251.011 266.372 250.617 263.418 250.617 263.418Z" fill="#FFB27D"/>
<path d="M253.901 261.711C253.901 261.711 206.225 260.924 194.799 268.408C194.799 268.408 188.1 275.302 190.07 279.044C192.041 282.786 198.148 282.195 200.906 281.998C203.664 281.801 251.931 270.771 251.931 270.771C251.931 270.771 257.447 266.636 253.901 261.711Z" fill="#699DEE"/>
<path d="M213.321 274.916C213.321 274.916 267.575 258.069 281.202 274.097C293.14 288.138 325.514 343.72 327.218 376.617C328.874 408.582 297.751 429.599 265.735 429.599H208.873L213.321 274.916Z" fill="#D7D7D7"/>
<path d="M294.916 376.617C293.212 343.719 270.127 291.3 261.738 278.16C249.499 258.991 196.691 277.403 173.509 286.675C160.326 247.517 147.309 209.075 140.243 188.228C137.002 178.667 128.028 172.237 117.931 172.237C117.931 172.237 80.233 166.67 74.3992 216.881C55.7253 377.605 70.7298 429.433 137.716 429.833C146.117 429.883 162.537 429.734 176.57 429.576L176.572 429.599H233.434C265.449 429.599 296.572 408.581 294.916 376.617Z" fill="#F1A34F"/>
<path d="M294.917 376.51C293.211 343.516 270.129 290.946 261.738 277.769C251.32 261.402 211.504 272.347 185.593 281.701C181.063 283.334 176.959 284.922 173.511 286.305C160.327 247.035 147.311 208.479 140.243 187.571C137.003 177.985 128.028 171.535 117.93 171.535C117.93 171.535 114.198 171.57 109.068 172.039C109.065 172.039 109.065 172.039 109.062 172.039C100.797 172.792 88.915 174.672 83.22 179.343C79.3578 182.512 76.7034 196.414 74.4001 216.308C68.9546 263.303 66.3738 301.017 67.1075 330.874C67.483 346.188 68.7332 359.432 70.917 370.807C72.4443 378.773 74.4281 385.821 76.8963 392.014C87.5873 418.878 107.288 429.7 137.715 429.883C141.251 429.904 146.209 429.89 151.812 429.855C159.519 429.806 168.444 429.714 176.569 429.623L176.572 429.647H233.435C265.449 429.648 296.575 408.567 294.917 376.51Z" fill="#808080"/>
<path d="M172.885 284.11C164.329 287.47 154.846 291.192 147.172 294.204C139.672 266.612 117.559 185.175 115.813 177.801C114.877 173.838 111.983 172.405 109.069 172.039C114.198 171.571 117.932 171.535 117.932 171.535C128.028 171.535 137.001 177.968 140.244 187.525C147.199 208.041 159.915 245.602 172.885 284.11Z" fill="#D7D7D7"/>
<path opacity="0.4" d="M190.349 310.29C186.339 298.278 161.358 302.03 161.358 302.03C161.358 302.03 144.396 323.056 139.46 323.555C134.526 324.057 149.638 303.283 149.638 303.283C140.078 302.532 115.71 312.042 115.71 312.042C115.71 312.042 117.255 336.571 112.319 336.072C107.386 335.57 112.319 314.295 112.319 314.295C103.067 316.548 94.4297 325.31 94.4297 325.31C83.6367 339.576 106.768 350.089 106.768 350.089C106.768 350.089 107.077 358.598 100.599 368.359C100.599 368.359 92.4563 378.395 95.0687 391.372H87.9024C89.2754 382.031 83.5276 374.948 83.5276 374.948C78.6156 367.541 78.851 361.086 78.851 361.086C78.851 361.086 96.396 353.111 88.2079 342.289C88.2079 342.289 81.6562 335.641 74.6374 333.935C74.6374 333.935 78.3804 350.071 74.6374 350.454C70.8944 350.833 72.0638 332.225 72.0638 332.225C72.0638 332.225 70.0588 331.442 67.1061 330.41C67.4819 345.68 68.7318 358.885 70.9156 370.226C73.0854 369.356 74.7498 368.219 75.5747 366.783C75.715 366.533 75.8521 366.298 75.982 366.07C75.7854 366.541 75.5747 366.783 75.5747 366.783C77.2566 367.58 79.7811 371.381 81.5331 374.295C81.7825 374.793 82.1792 375.478 82.7621 376.404C83.0008 376.829 83.1939 377.177 83.3238 377.419C85.3464 381.522 85.4233 387.496 85.2022 391.372H59.185V392.498H60.6983C61.2532 407.455 72.8115 420.163 89.0259 425.477H65.642C62.5523 425.477 60.0487 427.509 60.0487 430.015H151.923C151.923 429.703 151.884 429.398 151.811 429.103C151.291 427.036 149.037 425.477 146.334 425.477H122.95C139.164 420.162 150.719 407.455 151.277 392.498H152.331V391.372H104.036C105.152 389.385 106.515 387.44 108.113 386.022C108.299 385.868 108.544 385.664 108.843 385.419C109.633 384.825 110.184 384.38 110.56 384.046C112.989 382.151 116.353 379.732 117.972 379.501C117.972 379.501 117.891 379.258 117.905 378.837C117.926 379.051 117.95 379.269 117.972 379.501C118.526 384.776 131.145 389.389 138.908 390.336C146.671 391.284 144.273 388.694 141.598 384.854C138.922 381.013 130.457 379.297 128.526 377.528C126.595 375.759 130.587 375.755 135.267 377.489C139.944 379.223 140.583 383.846 148.086 386.759C155.59 389.676 166.881 379.574 166.881 379.574C160.902 379.325 152.363 374.056 152.672 372.445C152.981 370.83 167.166 375.225 169.592 375.435C172.018 375.646 177.534 373.199 178.387 365.27C179.244 357.344 163.229 355.133 163.229 355.133C163.229 355.133 159.536 357.362 155.365 359.605C154.543 358.738 153.205 357.78 151.643 356.709C153.019 355.719 154.258 354.869 155.027 354.346C156.569 354.687 158.251 354.947 160.125 355.094C173.078 356.094 182.948 336.321 182.948 336.321C174.005 338.575 157.966 334.57 157.348 332.067C156.73 329.565 180.479 329.814 184.18 329.062C187.884 328.311 194.359 322.305 190.349 310.29ZM111.083 357.594C111.051 357.555 110.788 357.239 110.545 356.656C110.718 356.958 110.897 357.264 111.083 357.594ZM108.759 384.085C108.759 384.085 104.51 386.64 101.547 391.373H98.4815C98.1021 386.402 97.9549 377.532 100.869 371.617C101.041 371.297 101.291 370.845 101.606 370.287C101.993 369.672 102.316 369.138 102.586 368.675C102.853 368.216 103.063 367.826 103.228 367.499C105.539 363.656 108.867 358.647 111.086 357.597C111.634 358.552 112.47 359.409 113.523 360.171C109.31 366.542 117.421 374.222 117.421 374.222C117.421 374.222 115.296 379.385 108.759 384.085ZM142.827 352.57C136.194 351.086 128.196 351.363 125.271 350.089C121.262 348.334 127.122 346.582 135.141 347.084C140.537 347.421 144.119 350.475 149.828 352.742C147.605 352.585 145.151 352.546 142.827 352.57Z" fill="white"/>
<path d="M64.3672 345.098C64.3672 345.098 81.9155 335.273 73.7262 321.94C73.7262 321.94 67.175 313.753 60.1557 311.647C60.1557 311.647 63.8993 331.53 60.1557 331.998C56.4118 332.466 57.5818 309.542 57.5818 309.542C57.5818 309.542 39.0978 300.654 31.8445 301.355C31.8445 301.355 43.3092 320.77 39.5657 320.303C35.8221 319.835 22.9534 300.186 22.9534 300.186C22.9534 300.186 4.00118 296.677 0.959694 307.905C-2.08209 319.134 2.83149 324.747 5.63934 325.449C8.44689 326.151 26.4631 325.917 25.9955 328.256C25.5276 330.595 13.3605 334.338 6.57539 332.233C6.57539 332.233 14.0626 350.712 23.8897 349.777C33.7169 348.841 36.7584 342.759 42.842 342.291C48.9252 341.824 53.3709 343.461 50.3292 345.099C47.2874 346.736 36.9923 345.635 32.0791 349.811C27.1655 353.987 23.1879 356.56 32.313 358.432C41.438 360.303 57.8164 359.133 61.0921 352.116C64.3672 345.098 64.3672 345.098 64.3672 345.098Z" fill="#E4E4E4"/>
<path d="M69.0471 362.174C64.1335 353.052 64.3675 345.098 64.3675 345.098C58.7521 327.32 9.61682 311.414 9.61682 311.414C72.0886 336.677 61.0914 352.116 61.0914 352.116C62.7749 353.097 65.2993 357.779 67.051 361.371C67.3005 361.982 67.6956 362.828 68.2824 363.977C68.5202 364.495 68.7103 364.92 68.8418 365.217C72.0585 373.263 70.3545 387.158 70.3545 387.158L72.3041 387.681C76.6243 373.678 69.0471 362.174 69.0471 362.174Z" fill="black"/>
<path d="M92.2849 331.549C92.2849 331.549 69.1531 318.598 79.9479 301.022C79.9479 301.022 88.5839 290.23 97.8365 287.455C97.8365 287.455 92.9015 313.665 97.8365 314.281C102.771 314.898 101.229 284.68 101.229 284.68C101.229 284.68 125.595 272.963 135.156 273.888C135.156 273.888 120.043 299.481 124.978 298.864C129.913 298.248 146.876 272.346 146.876 272.346C146.876 272.346 171.859 267.721 175.868 282.522C179.877 297.322 173.4 304.723 169.699 305.648C165.998 306.572 142.25 306.264 142.866 309.348C143.483 312.431 159.521 317.364 168.466 314.59C168.466 314.59 158.596 338.949 145.642 337.716C132.688 336.482 128.679 328.465 120.66 327.849C112.641 327.232 106.781 329.39 110.79 331.549C114.8 333.707 128.371 332.256 134.848 337.761C141.324 343.266 146.568 346.658 134.539 349.125C122.511 351.592 100.921 350.05 96.6028 340.799C92.2849 331.549 92.2849 331.549 92.2849 331.549Z" fill="#E4E4E4"/>
<path d="M164.456 287.146C164.456 287.146 99.687 308.114 92.2848 331.549C92.2848 331.549 92.5932 342.032 86.1163 354.058C86.1163 354.058 76.1279 369.222 81.8222 387.681L84.392 386.991C84.392 386.991 82.1459 368.676 86.3857 358.07C86.5591 357.679 86.8097 357.119 87.1235 356.434C87.8972 354.92 88.4178 353.805 88.7468 353C91.0561 348.265 94.3836 342.094 96.6026 340.799C96.6026 340.799 82.1068 320.448 164.456 287.146Z" fill="black"/>
<path d="M46.1938 382.41C46.1938 407.429 66.4805 427.71 91.5052 427.71C116.53 427.71 136.817 407.429 136.817 382.41H46.1938Z" fill="black"/>
<path d="M102.655 427.364C100.812 427.594 98.9333 427.711 97.0257 427.711C72.0013 427.711 51.7164 407.428 51.7164 382.41H62.9731C62.9731 405.524 80.2868 424.593 102.655 427.364Z" fill="#D7D7D7"/>
<path d="M131.853 424.427H51.1585C48.0712 424.427 45.5682 426.929 45.5682 430.016H137.443C137.443 426.929 134.94 424.427 131.853 424.427Z" fill="black"/>
<path d="M137.847 382.41H44.7038V383.8H137.847V382.41Z" fill="#4A75CB"/>
<path d="M587.899 294.865V338.368C587.899 346.011 585.739 352.194 583.069 352.194H497.859C495.188 352.194 493.028 346.011 493.028 338.368V294.865C493.028 287.222 500.559 280.144 522.647 280.389L583.069 281.039C585.739 281.039 587.899 287.222 587.899 294.865Z" fill="black"/>
<path d="M599.188 294.865V338.368C599.188 346.011 597.028 352.193 594.358 352.193H509.148C506.478 352.193 504.318 346.011 504.318 338.368V294.865C504.318 287.222 512.34 279.898 524.611 280.144L594.358 281.039C597.028 281.039 599.188 287.222 599.188 294.865Z" fill="#C8C8C8"/>
<path d="M578.177 242.69C579.338 240.125 577.597 133.043 603.713 134.325C629.828 135.607 678.578 136.89 678.578 136.89C678.578 136.89 700.631 138.813 687.283 191.392C673.935 243.972 676.836 327.329 676.836 327.329H580.499L578.177 242.69Z" fill="black"/>
<path d="M668.703 191.402C667.093 197.683 665.757 204.396 664.579 211.344C659.867 239.492 658.414 271.565 658.061 294.845C657.786 314.081 658.257 327.311 658.257 327.311H561.935L559.618 242.672C560.756 240.12 559.029 133.026 585.141 134.321C598.492 134.988 617.773 135.617 633.401 136.127C635.364 136.166 637.288 136.245 639.134 136.284C651.228 136.638 660.024 136.873 660.024 136.873C660.024 136.873 682.053 138.797 668.703 191.402Z" fill="#C8C8C8"/>
<path d="M608.2 406.204V349.72C608.2 347.325 606.197 345.323 603.802 345.323H603.762C602.977 345.323 602.231 345.559 601.603 345.951C600.268 346.697 599.364 348.11 599.364 349.72V406.281C599.194 406.309 599.024 406.337 598.854 406.369C586.21 408.332 575.922 417.596 572.466 429.727H635.569C632.015 417.291 621.32 407.878 608.2 406.204Z" fill="black"/>
<path opacity="0.4" d="M664.501 209.656C662.145 173.539 643.257 142.644 639.134 136.284L597.746 132.191C597.746 132.191 565.841 153.292 573.695 234.506C577.745 276.385 595.018 248.956 610.8 212.562L607.563 291.429C607.563 291.429 646.084 294.06 658.061 294.845C658.414 271.565 659.867 239.492 664.579 211.344C664.579 210.795 664.54 210.206 664.501 209.656Z" fill="#C8C8C8"/>
<path d="M601.603 345.951C600.268 346.697 599.365 348.11 599.365 349.72V418.931C599.365 420.58 600.268 421.993 601.603 422.699C602.899 421.954 603.802 420.54 603.802 418.931V349.72C603.802 348.11 602.899 346.697 601.603 345.951Z" fill="black"/>
<path d="M598.854 406.368C586.21 408.331 575.922 417.596 572.467 429.726H625.242C621.786 417.595 611.538 408.331 598.854 406.368Z" fill="#C8C8C8"/>
<path d="M678.214 332.171L676.035 344.672C676.035 347.342 676.054 352.193 673.383 352.193H523.382C520.712 352.193 518.552 350.033 518.552 347.364V332.171C518.552 329.502 520.712 327.343 523.382 327.343H673.383C676.054 327.343 678.214 329.502 678.214 332.171Z" fill="#C8C8C8"/>
<path d="M497.78 420.626C498.055 421.961 498.33 423.336 498.251 424.749C498.055 425.534 497.544 426.123 496.798 426.593L496.092 427.928C495.345 428.282 493.539 428.556 491.222 428.792L491.183 427.693C490.869 427.693 490.555 427.693 490.241 427.732V427.693C487.492 427.732 484.075 427.968 479.913 429.616C479.874 429.616 479.835 429.656 479.795 429.656C479.05 429.695 478.303 429.734 477.636 429.774H467.505C462.636 429.067 460.712 427.104 460.358 426.123C460.358 425.848 464.01 424.043 467.034 423.179C467.073 423.179 467.152 423.139 467.269 423.139C467.701 422.982 468.526 422.668 468.722 422.628C469.272 422.432 469.9 422.275 470.45 422.118C475.516 420.626 478.932 417.251 482.937 413.521C487.531 409.242 493.775 390.163 492.951 389.81L503.278 391.144C503.278 391.144 494.992 407.711 495.66 412.854C495.934 415.131 496.759 417.054 497.309 419.017C497.348 419.096 497.348 419.214 497.388 419.293C497.505 419.567 497.584 419.842 497.662 420.117C497.701 420.312 497.741 420.47 497.78 420.626Z" fill="#EF9A60"/>
<path d="M627.741 277.352L583.326 275.537C583.326 275.537 515.774 279.898 510.044 289.714L484.569 408.835C484.569 408.835 485.98 410.737 490.765 411.556C493.295 411.99 498.804 410.737 498.804 410.737C498.804 410.737 531.792 368.564 536.034 342.085C539.578 319.957 540.98 317.645 553.114 318.105C565.248 318.564 602.482 321.495 620.174 318.07C637.867 314.644 627.741 277.352 627.741 277.352Z" fill="#547DCB"/>
<path d="M498.447 423.649C498.447 424.042 498.408 424.435 498.251 424.748C498.055 425.534 497.544 426.123 496.798 426.593C496.72 426.672 496.642 426.711 496.563 426.75C496.563 426.75 496.563 426.75 496.523 426.75C496.484 426.79 496.445 426.79 496.406 426.829C495.11 427.614 493.382 427.614 491.183 427.693H490.241C487.492 427.732 484.076 427.968 479.914 429.616C479.874 429.616 479.835 429.655 479.796 429.655C479.678 429.695 479.6 429.734 479.481 429.773H462.321C459.966 428.831 459.495 427.34 459.259 426.79C459.063 426.358 459.612 425.887 460.673 425.377C460.751 425.337 460.869 425.298 460.947 425.22C462.44 424.552 464.678 423.846 467.073 423.061C467.113 423.1 467.191 423.1 467.269 423.139C468.88 423.689 474.495 425.455 481.092 424.2C486.589 423.139 492.047 420.548 496.249 419.292C496.602 419.214 496.956 419.096 497.309 419.017C497.388 418.978 497.466 418.978 497.545 418.938C497.623 419.095 497.663 419.292 497.702 419.449C498.094 420.783 498.447 422.197 498.447 423.649Z" fill="black"/>
<path d="M497.034 426.163L496.798 426.594L496.092 427.93L495.11 429.774H490.28V428.793L490.241 427.733V427.262L496.759 426.202L497.034 426.163Z" fill="black"/>
<path d="M512.832 420.626C513.108 421.961 513.382 423.336 513.304 424.749C513.108 425.534 512.597 426.123 511.851 426.593L511.144 427.928C510.398 428.282 508.592 428.556 506.275 428.792L506.235 427.693C505.921 427.693 505.607 427.693 505.293 427.732V427.693C502.544 427.732 499.128 427.968 494.966 429.616C494.927 429.616 494.887 429.656 494.848 429.656C494.102 429.695 493.356 429.734 492.688 429.774H482.557C477.688 429.067 475.764 427.104 475.411 426.123C475.411 425.848 479.063 424.043 482.086 423.179C482.125 423.179 482.204 423.139 482.322 423.139C482.753 422.982 483.578 422.668 483.774 422.628C484.324 422.432 484.953 422.275 485.502 422.118C490.568 420.626 493.984 417.251 497.989 413.521C502.584 409.242 508.827 390.163 508.003 389.81L518.33 391.144C518.33 391.144 510.044 407.711 510.712 412.854C510.987 415.131 511.811 417.054 512.361 419.017C512.4 419.096 512.4 419.214 512.44 419.293C512.557 419.567 512.636 419.842 512.714 420.117C512.754 420.312 512.793 420.47 512.832 420.626Z" fill="#FFB27D"/>
<path d="M600.797 167.175L597.339 180.892L579.187 252.598C578.495 253.679 572.714 255.963 566.32 258.109C558.707 260.653 550.203 263.053 548.594 262.911C545.649 262.673 544.021 256.523 544.86 254.789C545.403 253.645 555.109 248.496 562.699 243.881C566.936 241.306 570.508 238.903 571.496 237.471C573.279 234.817 577.716 210.402 581.329 192.534C583.173 183.368 584.819 175.919 585.772 173.966C588.19 168.869 597.602 167.492 600.151 167.229C600.558 167.176 600.797 167.175 600.797 167.175Z" fill="black"/>
<path d="M639.49 277.392L595.075 275.577C595.075 275.577 527.522 279.938 521.793 289.754L498.252 411.227C498.252 411.227 502.36 412.629 504.939 412.822C509.05 413.128 511.872 411.779 511.872 411.779C511.872 411.779 543.541 368.604 547.783 342.126C551.327 319.998 552.728 317.686 564.862 318.145C576.997 318.604 614.231 321.536 631.923 318.11C649.615 314.685 639.49 277.392 639.49 277.392Z" fill="#2B478B"/>
<path d="M513.5 423.649C513.5 424.042 513.461 424.435 513.304 424.748C513.108 425.534 512.597 426.123 511.851 426.593C511.772 426.672 511.694 426.711 511.615 426.75C511.615 426.75 511.615 426.75 511.576 426.75C511.537 426.79 511.497 426.79 511.458 426.829C510.162 427.614 508.435 427.614 506.236 427.693H505.293C502.544 427.732 499.128 427.968 494.966 429.616C494.927 429.616 494.887 429.655 494.848 429.655C494.73 429.695 494.652 429.734 494.534 429.773H477.374C475.018 428.831 474.547 427.34 474.311 426.79C474.115 426.358 474.665 425.887 475.725 425.377C475.803 425.337 475.921 425.298 476 425.22C477.492 424.552 479.73 423.846 482.125 423.061C482.165 423.1 482.243 423.1 482.322 423.139C483.932 423.689 489.547 425.455 496.144 424.2C501.642 423.139 507.099 420.548 511.301 419.292C511.655 419.214 512.008 419.096 512.361 419.017C512.44 418.978 512.518 418.978 512.597 418.938C512.676 419.095 512.715 419.292 512.754 419.449C513.147 420.783 513.5 422.197 513.5 423.649Z" fill="black"/>
<path d="M512.086 426.163L511.851 426.594L511.144 427.93L510.162 429.774H505.332V428.793L505.293 427.733V427.262L511.812 426.202L512.086 426.163Z" fill="black"/>
<path d="M623.014 147.896C644.315 146.278 648.481 102.571 623.139 107.894C623.139 107.894 619.587 105.573 617.831 105.55C617.831 105.55 619.188 106.045 619.781 106.895C617.043 106.283 612.796 105.291 609.453 107.187C575.183 126.622 614.758 148.523 623.014 147.896Z" fill="black"/>
<path d="M598.978 171.167C598.893 171.19 605.984 176.464 612.067 175.816C617.787 175.21 622.519 168.689 622.446 168.66C620.2 167.824 620.048 164.528 622.318 150.839L621.236 150.876L603.034 151.509C603.034 151.509 602.536 157.122 601.7 162.351C601 166.742 600.059 170.861 598.978 171.167Z" fill="#FFB27D"/>
<path d="M597.339 180.893L579.187 252.599C578.495 253.679 572.714 255.964 566.32 258.109C565.778 256.789 565.268 255.274 564.783 253.605C563.812 250.266 563.107 247.009 562.7 243.882C566.936 241.307 570.508 238.903 571.496 237.472C573.279 234.818 577.716 210.403 581.329 192.535C589.467 184.548 597.144 180.622 597.144 180.622L597.339 180.893Z" fill="black"/>
<path d="M603.034 151.509C603.034 151.509 602.535 157.122 601.7 162.352C611.614 163.673 618.289 155.518 621.236 150.876L603.034 151.509Z" fill="#EF9A60"/>
<path d="M623.369 149.251C623.369 149.251 629.865 141.919 632.24 135.135C633.935 130.292 634.392 111.393 615.378 111.044C615.378 111.044 609.895 110.701 604.267 113.304C599.791 115.375 593.015 120.312 596.909 137.498L597.716 143.222L623.369 149.251Z" fill="black"/>
<path d="M598.936 155.924C598.936 155.924 622.223 160.094 624.597 145.556C626.971 131.018 631.575 121.765 616.807 118.488C602.04 115.211 598.238 120.286 596.265 124.945C594.292 129.605 592.94 154.465 598.936 155.924Z" fill="#FFB27D"/>
<path d="M606.231 116.407C606.231 116.407 609.857 134.503 619.26 138.615C628.662 142.727 633.344 140.789 633.344 140.789C633.344 140.789 626.787 133.592 626.918 122.906C626.918 122.906 612.37 109.07 606.231 116.407Z" fill="black"/>
<path d="M607.591 118.05C607.591 118.05 602.199 121.084 600.435 124.599C598.67 128.113 596.911 135.65 594.73 135.031C594.73 135.031 591.794 122.655 598.27 116.974C605.138 110.948 607.591 118.05 607.591 118.05Z" fill="black"/>
<path d="M641.323 299.456C639.472 302.776 635.451 303.039 630.397 301.584C627.96 300.91 625.315 299.805 622.54 298.52C622.287 298.36 621.99 298.232 621.731 298.111C613.547 294.12 604.418 288.107 597.284 283.53C582.329 273.947 581.339 279.315 576.906 274.023C576.906 274.023 581.462 269.234 575.618 213.284C573.959 197.266 600.797 167.176 600.797 167.176C600.797 167.176 600.977 177.107 622.436 168.655C623.197 168.38 629.062 181.023 634.185 196.29C635.022 198.732 635.814 201.207 636.561 203.714C640.132 215.548 642.782 227.909 642.064 236.502C641.893 238.542 641.552 240.396 640.984 241.934C640.921 242.083 640.857 242.232 640.793 242.38C633.428 260.077 646.613 289.894 641.323 299.456Z" fill="black"/>
<path d="M567.493 229.546L527.942 226.719L544.878 272.821L581.915 276.662L567.493 229.546Z" fill="#B64C41"/>
<path d="M567.142 230.044L527.59 227.217L544.527 273.319L581.564 277.16L567.142 230.044Z" fill="#D6716B"/>
<path d="M563.581 229.267C563.581 229.267 564.533 223.293 561.165 223.171C557.796 223.048 555.827 228.886 555.827 228.886L563.581 229.267Z" fill="#B2CBFD"/>
<path d="M557.252 234.675C558.192 238.925 563.633 245.879 563.306 249.396L538.027 249.069C538.027 249.069 538.191 247.433 532.792 235.82C530.572 231.045 533.199 222.415 535.477 222.22L561.158 223.162C561.158 223.162 555.419 226.393 557.252 234.675Z" fill="#D2E9FF"/>
<path d="M527.942 226.719L527.59 227.218L528.463 227.273L528.385 226.965L527.942 226.719Z" fill="#B64C41"/>
<path d="M581.564 277.16L581.915 276.66L581.248 276.144L581.564 277.16Z" fill="#B64C41"/>
<path d="M641.323 299.456C639.472 302.776 635.451 303.039 630.397 301.584C627.96 300.91 625.315 299.805 622.54 298.52C612.712 292.155 602.19 281.979 596.282 265.67C583.008 229.038 634.051 202.512 634.051 202.512L636.561 203.714C640.131 215.548 642.782 227.908 642.064 236.502C641.893 238.542 641.552 240.396 640.984 241.934C640.921 242.083 640.857 242.232 640.793 242.38C633.428 260.077 646.613 289.894 641.323 299.456Z" fill="#C8C8C8"/>
<path d="M597.962 240.044L596.361 238.907L581.014 260.514L582.615 261.651L597.962 240.044Z" fill="#D16E24"/>
<path d="M580.995 260.47L580.872 262.393L582.596 261.606L580.995 260.47Z" fill="#F1A34F"/>
<path d="M601.462 251.156C601.462 251.156 594.54 248.282 591.028 249.089C587.515 249.897 580.372 252.245 580.686 254.174C580.999 256.103 588.65 258.344 592.241 257.048C595.832 255.752 597.897 258.466 602.142 257.776C606.387 257.087 601.462 251.156 601.462 251.156Z" fill="#FFB27D"/>
<path d="M622.446 168.66C622.446 168.66 644.244 172.36 646.959 178.103C649.674 183.846 647.87 244.037 646.177 250.391C644.483 256.745 609.273 259.738 598.727 259.354C598.727 259.354 597.069 252.208 599.041 248.22C601.014 244.231 627.073 239.921 629.212 236.953C631.35 233.986 624.934 197.402 625.764 190.245C626.592 183.088 622.446 168.66 622.446 168.66Z" fill="black"/>
<path d="M537.03 253.456C537.03 253.456 544.229 252.758 543.254 255.707C542.279 258.656 539.561 260.08 539.561 260.08C539.561 260.08 533.996 256.071 537.03 253.456Z" fill="#FFB27D"/>
<path d="M666.924 294.864V338.367C666.924 346.01 664.765 352.193 662.094 352.193H576.884C574.214 352.193 572.054 346.01 572.054 338.367V294.864C572.054 287.221 578.849 279.652 602.164 281.038H662.094C664.765 281.038 666.924 287.221 666.924 294.864Z" fill="#C8C8C8"/>
<path d="M678.214 294.865V338.367C678.214 346.01 676.054 352.193 673.383 352.193H588.174C585.503 352.193 583.343 346.01 583.343 338.367V294.865C583.343 287.222 590.629 280.388 607.809 281.039L668.673 280.634C678.244 280.633 678.214 287.221 678.214 294.865Z" fill="black"/>
<path d="M767.847 314.104H657.06C654.425 314.104 652.269 316.258 652.269 318.893V320.61C652.269 323.244 654.425 325.399 657.06 325.399H708.155L711.021 413.083C696.892 413.528 685.218 420.528 682.144 429.814H742.762C739.713 420.601 728.199 413.643 714.22 413.098L716.76 325.4H767.847C770.482 325.4 772.638 323.244 772.638 320.61V318.893C772.638 316.258 770.482 314.104 767.847 314.104Z" fill="black"/>
<path d="M705.491 304.89C704.785 304.454 703.412 304.624 702.418 304.833V303.393C702.418 303.075 702.395 302.761 702.357 302.453H687.436C687.397 302.761 687.375 303.075 687.375 303.393V306.32C687.375 310.456 690.759 313.84 694.896 313.84C697.136 313.84 699.155 312.846 700.536 311.28L700.535 311.281C700.535 311.281 704.085 310.407 705.199 309.085C706.314 307.762 706.675 305.621 705.491 304.89ZM704.703 307.596C704.326 308.57 702.634 309.094 701.799 309.297C702.133 308.529 702.341 307.695 702.4 306.822C702.915 306.117 703.728 305.704 704.325 305.812C704.857 305.909 705.18 306.364 704.703 307.596Z" fill="#C8C8C8"/>
<path d="M688.597 303.392V306.321C688.597 310.455 691.98 313.842 696.116 313.842C696.458 313.842 696.797 313.817 697.127 313.768C693.465 313.274 690.618 310.113 690.618 306.321V303.392C690.618 303.075 690.639 302.761 690.679 302.452H688.657C688.618 302.761 688.597 303.075 688.597 303.392Z" fill="black"/>
<path d="M697.961 313.185H691.821V314.104H697.961V313.185Z" fill="#C8C8C8"/>
<path d="M745.004 304.89C744.298 304.454 742.925 304.624 741.931 304.833V303.393C741.931 303.075 741.908 302.761 741.869 302.453H726.949C726.91 302.761 726.888 303.075 726.888 303.393V306.32C726.888 310.456 730.272 313.84 734.409 313.84C736.65 313.84 738.667 312.846 740.049 311.28L740.048 311.281C740.048 311.281 743.598 310.407 744.712 309.085C745.827 307.762 746.188 305.621 745.004 304.89ZM744.216 307.596C743.839 308.57 742.147 309.094 741.312 309.297C741.646 308.529 741.854 307.695 741.912 306.822C742.428 306.117 743.241 305.704 743.838 305.812C744.37 305.909 744.693 306.364 744.216 307.596Z" fill="#C8C8C8"/>
<path d="M728.109 303.392V306.321C728.109 310.455 731.493 313.842 735.629 313.842C735.971 313.842 736.31 313.817 736.64 313.768C732.978 313.274 730.131 310.113 730.131 306.321V303.392C730.131 303.075 730.153 302.761 730.192 302.452H728.17C728.131 302.761 728.109 303.075 728.109 303.392Z" fill="black"/>
<path d="M737.474 313.185H731.334V314.104H737.474V313.185Z" fill="#C8C8C8"/>
<path d="M728.388 431.756H90.8821C90.5311 431.756 90.2438 431.358 90.2438 430.872V430.657C90.2438 430.171 90.5311 429.772 90.8821 429.772H728.388C728.739 429.772 729.026 430.171 729.026 430.657V430.872C729.026 431.358 728.739 431.756 728.388 431.756Z" fill="#283250"/>
</svg>
