<svg width="23" height="22" viewBox="0 0 23 22" fill="none" xmlns="http://www.w3.org/2000/svg">
<path fill-rule="evenodd" clip-rule="evenodd" d="M14.2868 3.71387C15.2127 4.08237 15.4959 5.36571 15.8745 5.77821C16.2531 6.19071 16.7948 6.33096 17.0946 6.33096C18.6877 6.33096 19.9793 7.62254 19.9793 9.21479V14.5269C19.9793 16.6627 18.2468 18.3952 16.111 18.3952H6.88933C4.75258 18.3952 3.021 16.6627 3.021 14.5269V9.21479C3.021 7.62254 4.31258 6.33096 5.90575 6.33096C6.20458 6.33096 6.74633 6.19071 7.12583 5.77821C7.50441 5.36571 7.78675 4.08237 8.71258 3.71387C9.63933 3.34537 13.361 3.34537 14.2868 3.71387Z" stroke="white" stroke-width="1.5" stroke-linecap="round" stroke-linejoin="round"/>
<path d="M16.5375 8.70833H16.5457" stroke="white" stroke-width="2" stroke-linecap="round" stroke-linejoin="round"/>
<path fill-rule="evenodd" clip-rule="evenodd" d="M14.414 12.0332C14.414 10.4236 13.1096 9.11914 11.4999 9.11914C9.89023 9.11914 8.58582 10.4236 8.58582 12.0332C8.58582 13.6429 9.89023 14.9473 11.4999 14.9473C13.1096 14.9473 14.414 13.6429 14.414 12.0332Z" stroke="white" stroke-width="1.5" stroke-linecap="round" stroke-linejoin="round"/>
</svg>
