<svg width="25" height="24" viewBox="0 0 25 24" fill="none" xmlns="http://www.w3.org/2000/svg">
<path fill-rule="evenodd" clip-rule="evenodd" d="M13.207 15.7083C13.0194 15.8958 12.7651 16.0011 12.5 16.0011C12.2348 16.0011 11.9805 15.8958 11.793 15.7083L6.13598 10.0513C6.04047 9.95907 5.96428 9.84873 5.91188 9.72672C5.85947 9.60472 5.83188 9.4735 5.83073 9.34072C5.82957 9.20794 5.85487 9.07626 5.90516 8.95337C5.95544 8.83047 6.02969 8.71882 6.12358 8.62492C6.21747 8.53103 6.32913 8.45678 6.45202 8.4065C6.57492 8.35622 6.7066 8.33092 6.83938 8.33207C6.97216 8.33322 7.10338 8.36081 7.22538 8.41322C7.34739 8.46563 7.45773 8.54181 7.54998 8.63732L12.5 13.5873L17.45 8.63732C17.6386 8.45516 17.8912 8.35437 18.1534 8.35665C18.4156 8.35892 18.6664 8.46409 18.8518 8.6495C19.0372 8.83491 19.1424 9.08572 19.1447 9.34792C19.1469 9.61011 19.0461 9.86272 18.864 10.0513L13.207 15.7083Z" fill="black"/>
</svg>
