<svg width="23" height="22" viewBox="0 0 23 22" fill="none" xmlns="http://www.w3.org/2000/svg">
<path d="M1.41663 20.168H21.5833" stroke="black" stroke-width="1.5" stroke-miterlimit="10" stroke-linecap="round" stroke-linejoin="round"/>
<path d="M18.6317 20.1762V16.0879" stroke="black" stroke-width="1.5" stroke-miterlimit="10" stroke-linecap="round" stroke-linejoin="round"/>
<path d="M18.65 9.98242C17.5316 9.98242 16.6333 10.8808 16.6333 11.9991V14.0799C16.6333 15.1982 17.5316 16.0966 18.65 16.0966C19.7683 16.0966 20.6667 15.1982 20.6667 14.0799V11.9991C20.6667 10.8808 19.7683 9.98242 18.65 9.98242Z" stroke="black" stroke-width="1.5" stroke-miterlimit="10" stroke-linecap="round" stroke-linejoin="round"/>
<path d="M2.42493 20.1653V5.52616C2.42493 3.68366 3.34164 2.75781 5.16581 2.75781H10.8766C12.7008 2.75781 13.6083 3.68366 13.6083 5.52616V20.1653" stroke="black" stroke-width="1.5" stroke-miterlimit="10" stroke-linecap="round" stroke-linejoin="round"/>
<path d="M5.81665 7.5625H10.3542" stroke="black" stroke-width="1.5" stroke-miterlimit="10" stroke-linecap="round" stroke-linejoin="round"/>
<path d="M5.81665 11H10.3542" stroke="black" stroke-width="1.5" stroke-miterlimit="10" stroke-linecap="round" stroke-linejoin="round"/>
<path d="M8.0625 20.168V16.7305" stroke="black" stroke-width="1.5" stroke-miterlimit="10" stroke-linecap="round" stroke-linejoin="round"/>
</svg>
