<svg width="22" height="23" viewBox="0 0 22 23" fill="none" xmlns="http://www.w3.org/2000/svg">
<g opacity="0.5">
<path d="M13.3191 9.18088L8.68076 13.8192C8.08493 13.2234 7.71826 12.4076 7.71826 11.5001C7.71826 9.68505 9.18493 8.21838 10.9999 8.21838C11.9074 8.21838 12.7233 8.58505 13.3191 9.18088Z" stroke="black" stroke-width="1.5" stroke-linecap="round" stroke-linejoin="round"/>
<path d="M16.335 5.78919C14.7308 4.57919 12.8975 3.91919 11 3.91919C7.76415 3.91919 4.74831 5.82586 2.64915 9.12586C1.82415 10.4184 1.82415 12.5909 2.64915 13.8834C3.37331 15.02 4.21665 16.0009 5.13331 16.7892" stroke="black" stroke-width="1.5" stroke-linecap="round" stroke-linejoin="round"/>
<path d="M7.71826 18.4025C8.76326 18.8425 9.87243 19.0808 10.9999 19.0808C14.2358 19.0808 17.2516 17.1742 19.3508 13.8742C20.1758 12.5817 20.1758 10.4092 19.3508 9.11666C19.0483 8.64 18.7183 8.19083 18.3791 7.76917" stroke="black" stroke-width="1.5" stroke-linecap="round" stroke-linejoin="round"/>
<path d="M14.2174 12.1417C13.9791 13.4342 12.9249 14.4884 11.6324 14.7267" stroke="black" stroke-width="1.5" stroke-linecap="round" stroke-linejoin="round"/>
<path d="M8.68087 13.8192L1.83337 20.6667" stroke="black" stroke-width="1.5" stroke-linecap="round" stroke-linejoin="round"/>
<path d="M20.1667 2.33337L13.3192 9.18087" stroke="black" stroke-width="1.5" stroke-linecap="round" stroke-linejoin="round"/>
</g>
</svg>
