<svg width="52" height="52" viewBox="0 0 52 52" fill="none" xmlns="http://www.w3.org/2000/svg">
<rect width="52" height="52" rx="26" fill="black"/>
<rect x="0.5" y="0.5" width="51" height="51" rx="25.5" stroke="#B8B8B8" stroke-opacity="0.2"/>
<path d="M35.3 21.5797H29.72C29.33 21.5797 29.02 21.2697 29.02 20.8797C29.02 20.4897 29.33 20.1797 29.72 20.1797H35.3C35.69 20.1797 36 20.4897 36 20.8797C36 21.2697 35.69 21.5797 35.3 21.5797Z" fill="white"/>
<path d="M20.42 21.5797H16.7C16.31 21.5797 16 21.2697 16 20.8797C16 20.4897 16.31 20.1797 16.7 20.1797H20.42C20.81 20.1797 21.12 20.4897 21.12 20.8797C21.12 21.2697 20.8 21.5797 20.42 21.5797Z" fill="white"/>
<path d="M24.1399 24.8297C26.3215 24.8297 28.0899 23.0612 28.0899 20.8797C28.0899 18.6982 26.3215 16.9297 24.1399 16.9297C21.9584 16.9297 20.1899 18.6982 20.1899 20.8797C20.1899 23.0612 21.9584 24.8297 24.1399 24.8297Z" fill="white"/>
<path d="M35.2999 31.8102H31.5799C31.1899 31.8102 30.8799 31.5002 30.8799 31.1102C30.8799 30.7202 31.1899 30.4102 31.5799 30.4102H35.2999C35.6899 30.4102 35.9999 30.7202 35.9999 31.1102C35.9999 31.5002 35.6899 31.8102 35.2999 31.8102Z" fill="white"/>
<path d="M22.28 31.8102H16.7C16.31 31.8102 16 31.5002 16 31.1102C16 30.7202 16.31 30.4102 16.7 30.4102H22.28C22.67 30.4102 22.98 30.7202 22.98 31.1102C22.98 31.5002 22.66 31.8102 22.28 31.8102Z" fill="white"/>
<path d="M27.8599 35.0699C30.0414 35.0699 31.8099 33.3014 31.8099 31.1199C31.8099 28.9384 30.0414 27.1699 27.8599 27.1699C25.6784 27.1699 23.9099 28.9384 23.9099 31.1199C23.9099 33.3014 25.6784 35.0699 27.8599 35.0699Z" fill="white"/>
</svg>
