<svg width="14" height="12" viewBox="0 0 14 12" fill="none" xmlns="http://www.w3.org/2000/svg">
<path d="M6.96749 10.1027L9.92953 11.8942C10.472 12.2225 11.1358 11.7372 10.993 11.1234L10.2079 7.75449L12.8273 5.48478C13.3056 5.0708 13.0486 4.28568 12.4205 4.23572L8.97311 3.94308L7.62413 0.759773C7.38146 0.181638 6.55351 0.181638 6.31084 0.759773L4.96186 3.93595L1.51446 4.22858C0.886364 4.27854 0.629415 5.06367 1.10763 5.47764L3.72708 7.74735L2.94195 11.1162C2.79921 11.7301 3.46299 12.2154 4.00544 11.8871L6.96749 10.1027Z" fill="#DADADA"/>
<path d="M4.96186 3.93595L6.31084 0.759773C6.43218 0.470706 6.69983 0.326172 6.96749 0.326172V10.1027L4.00544 11.8871C3.46299 12.2154 2.79921 11.7301 2.94195 11.1162L3.72708 7.74735L1.10763 5.47764C0.629415 5.06367 0.886364 4.27854 1.51446 4.22858L4.96186 3.93595Z" fill="#FFAE00"/>
</svg>
