<svg width="36" height="37" viewBox="0 0 36 37" fill="none" xmlns="http://www.w3.org/2000/svg">
<path d="M18.0296 4.87158C13.0646 4.87158 9.02964 8.90658 9.02964 13.8716V18.2066C9.02964 19.1216 8.63964 20.5166 8.17464 21.2966L6.44964 24.1616C5.38464 25.9316 6.11964 27.8966 8.06964 28.5566C14.5346 30.7166 21.5096 30.7166 27.9746 28.5566C29.7896 27.9566 30.5846 25.8116 29.5946 24.1616L27.8696 21.2966C27.4196 20.5166 27.0296 19.1216 27.0296 18.2066V13.8716C27.0296 8.92158 22.9796 4.87158 18.0296 4.87158Z" stroke="black" stroke-width="2" stroke-miterlimit="10" stroke-linecap="round"/>
<path d="M20.801 5.30602C20.336 5.17102 19.856 5.06602 19.361 5.00602C17.921 4.82602 16.541 4.93102 15.251 5.30602C15.686 4.19602 16.766 3.41602 18.026 3.41602C19.286 3.41602 20.366 4.19602 20.801 5.30602Z" stroke="black" stroke-width="2" stroke-miterlimit="10" stroke-linecap="round" stroke-linejoin="round"/>
<path d="M22.5271 29.0967C22.5271 31.5717 20.5021 33.5967 18.0271 33.5967C16.7971 33.5967 15.6571 33.0867 14.8471 32.2767C14.0371 31.4667 13.5271 30.3267 13.5271 29.0967" stroke="black" stroke-width="2" stroke-miterlimit="10"/>
</svg>
