<svg width="22" height="23" viewBox="0 0 22 23" fill="none" xmlns="http://www.w3.org/2000/svg">
<g opacity="0.5">
<path d="M14.2817 11.4999C14.2817 13.3149 12.8151 14.7816 11.0001 14.7816C9.18505 14.7816 7.71838 13.3149 7.71838 11.4999C7.71838 9.68493 9.18505 8.21826 11.0001 8.21826C12.8151 8.21826 14.2817 9.68493 14.2817 11.4999Z" stroke="black" stroke-width="1.5" stroke-linecap="round" stroke-linejoin="round"/>
<path d="M11 19.0807C14.2358 19.0807 17.2516 17.1741 19.3508 13.8741C20.1758 12.5816 20.1758 10.4091 19.3508 9.11658C17.2516 5.81658 14.2358 3.90991 11 3.90991C7.76415 3.90991 4.74831 5.81658 2.64915 9.11658C1.82415 10.4091 1.82415 12.5816 2.64915 13.8741C4.74831 17.1741 7.76415 19.0807 11 19.0807Z" stroke="black" stroke-width="1.5" stroke-linecap="round" stroke-linejoin="round"/>
</g>
</svg>
