<svg width="23" height="22" viewBox="0 0 23 22" fill="none" xmlns="http://www.w3.org/2000/svg">
<path d="M2.39747 4.21664C3.1308 1.04497 7.90664 1.04497 8.6308 4.21664C9.06164 6.07747 7.87914 7.65414 6.85247 8.63497C6.1008 9.34997 4.9183 9.34081 4.16664 8.63497C3.14914 7.65414 1.96664 6.07747 2.39747 4.21664Z" stroke="black" stroke-width="1.5"/>
<path d="M14.3142 15.2166C15.0475 12.045 19.8508 12.045 20.5842 15.2166C21.015 17.0775 19.8325 18.6541 18.7967 19.635C18.045 20.35 16.8533 20.3408 16.1017 19.635C15.0658 18.6541 13.8833 17.0775 14.3142 15.2166Z" stroke="black" stroke-width="1.5"/>
<path d="M11.5001 4.58203H13.9567C15.6526 4.58203 16.4409 6.6812 15.1667 7.79953L7.84255 14.207C6.56838 15.3162 7.35672 17.4154 9.04338 17.4154H11.5001" stroke="black" stroke-width="1.5" stroke-linecap="round" stroke-linejoin="round"/>
<path d="M5.52903 5.04036H5.53962" stroke="black" stroke-width="2" stroke-linecap="round" stroke-linejoin="round"/>
<path d="M17.4457 16.0404H17.4562" stroke="black" stroke-width="2" stroke-linecap="round" stroke-linejoin="round"/>
</svg>
