<svg width="21" height="20" viewBox="0 0 21 20" fill="none" xmlns="http://www.w3.org/2000/svg">
<g opacity="0.5">
<path d="M15.6166 18.0176C14.8833 18.2343 14.0166 18.3343 13 18.3343H7.99997C6.9833 18.3343 6.11663 18.2343 5.3833 18.0176C5.56663 15.8509 7.79163 14.1426 10.5 14.1426C13.2083 14.1426 15.4333 15.8509 15.6166 18.0176Z" stroke="black" stroke-width="1.5" stroke-linecap="round" stroke-linejoin="round"/>
<path d="M13 1.66602H7.99996C3.83329 1.66602 2.16663 3.33268 2.16663 7.49935V12.4993C2.16663 15.6493 3.11663 17.3743 5.38329 18.016C5.56663 15.8493 7.79163 14.141 10.5 14.141C13.2083 14.141 15.4333 15.8493 15.6166 18.016C17.8833 17.3743 18.8333 15.6493 18.8333 12.4993V7.49935C18.8333 3.33268 17.1666 1.66602 13 1.66602ZM10.5 11.8077C8.84996 11.8077 7.51662 10.466 7.51662 8.81603C7.51662 7.16603 8.84996 5.83268 10.5 5.83268C12.15 5.83268 13.4833 7.16603 13.4833 8.81603C13.4833 10.466 12.15 11.8077 10.5 11.8077Z" stroke="black" stroke-width="1.5" stroke-linecap="round" stroke-linejoin="round"/>
<path d="M13.4833 8.81733C13.4833 10.4673 12.1499 11.809 10.4999 11.809C8.84994 11.809 7.5166 10.4673 7.5166 8.81733C7.5166 7.16733 8.84994 5.83398 10.4999 5.83398C12.1499 5.83398 13.4833 7.16733 13.4833 8.81733Z" stroke="black" stroke-width="1.5" stroke-linecap="round" stroke-linejoin="round"/>
</g>
</svg>
